<?xml version="1.0" standalone="no"?><!DOCTYPE svg PUBLIC "-//W3C//DTD SVG 1.1//EN" "http://www.w3.org/Graphics/SVG/1.1/DTD/svg11.dtd"><svg t="1528757058146" class="icon" style="" viewBox="0 0 1024 1024" version="1.1" xmlns="http://www.w3.org/2000/svg" p-id="6830" xmlns:xlink="http://www.w3.org/1999/xlink" width="200" height="200"><defs><style type="text/css"></style></defs><path d="M354.986667 208.64l-18.474667 10.666667 136.618667 236.629333-186.624-50.005333 11.050666-41.216-41.216-11.008-16.554666 61.781333-5.546667 20.608 269.098667 72.106667 0.170666 0.384 0.384-0.213334 58.026667 15.530667-30.208-52.266667-0.298667-0.085333-136.618666-236.629333 36.949333-21.333334 188.330667 326.229334 1.152-0.682667 0.426666 0.768 189.568 50.773333-11.050666 41.258667-618.154667-165.632 22.058667-82.432 41.216 11.008 11.050666-41.173333-82.432-22.101334-5.546666 20.608-33.109334 123.648-5.546666 20.608 680.064 182.186667 20.608 5.546667 27.605333-103.04 5.504-20.608-215.466667-57.728-189.994666-329.045334-10.666667-18.474666L354.986667 208.64zM853.333333 810.666667H128v-42.666667h725.333333v42.666667z" fill="#444444" p-id="6831"></path></svg>