<?xml version="1.0" standalone="no"?><!DOCTYPE svg PUBLIC "-//W3C//DTD SVG 1.1//EN" "http://www.w3.org/Graphics/SVG/1.1/DTD/svg11.dtd"><svg t="1528756212566" class="icon" style="" viewBox="0 0 1024 1024" version="1.1" xmlns="http://www.w3.org/2000/svg" p-id="6374" xmlns:xlink="http://www.w3.org/1999/xlink" width="200" height="200"><defs><style type="text/css"></style></defs><path d="M202.154667 322.304l-10.666667 18.474667 236.629333 136.618666-186.624 50.005334-11.093333-41.216-41.173333 11.093333 16.554666 61.781333 5.546667 20.608 269.056-72.106666 0.341333 0.213333 0.213334-0.341333 58.026666-15.573334-52.266666-30.165333-0.298667 0.085333-236.629333-136.618666 21.333333-36.949334 326.186667 188.330667 0.64-1.109333 0.768 0.426666 189.610666-50.773333 11.008 41.216L181.162667 631.893333l-22.101334-82.432 41.216-11.050666-11.050666-41.216-82.432 22.101333 5.546666 20.608 33.109334 123.648 5.546666 20.608 679.978667-182.229333 20.608-5.546667-27.605333-102.997333-5.546667-20.608-215.466667 57.728L273.962667 240.64l-18.474667-10.666667-53.333333 92.373334zM853.333333 810.666667H128v-42.666667h725.333333v42.666667z" fill="" p-id="6375"></path></svg>