<?xml version="1.0" standalone="no"?><!DOCTYPE svg PUBLIC "-//W3C//DTD SVG 1.1//EN" "http://www.w3.org/Graphics/SVG/1.1/DTD/svg11.dtd"><svg t="1532045700619" class="icon" style="" viewBox="0 0 1024 1024" version="1.1" xmlns="http://www.w3.org/2000/svg" p-id="8009" xmlns:xlink="http://www.w3.org/1999/xlink" width="200" height="200"><defs><style type="text/css"></style></defs><path d="M512 512m-512 0a512 512 0 1 0 1024 0 512 512 0 1 0-1024 0Z" fill="#FBD000" p-id="8010"></path><path d="M944 237.6c0-0.8-0.8-0.8-0.8-1.6H80.8c-3.2 4.8-5.6 8.8-8.8 13.6v523.2c31.2 52.8 72 100 119.2 138.4h640c46.4-36.8 85.6-81.6 116.8-132l-4-541.6z" fill="#F4B10B" p-id="8011"></path><path d="M576 120c-17.6 0-32-14.4-32-32s14.4-32 32-32 32 14.4 32 32-14.4 32-32 32z m0-48.8c-9.6 0-16.8 8-16.8 16.8 0 9.6 8 16.8 16.8 16.8 9.6 0 16.8-8 16.8-16.8 0-9.6-7.2-16.8-16.8-16.8zM546.4 960.8c0-3.2-3.2-6.4-8-7.2l-15.2-2.4c-4-0.8-8.8-4.8-8.8-8.8L512 928c-0.8-4-4-8-7.2-8s-6.4 3.2-7.2 8l-2.4 15.2c-0.8 4-4.8 8.8-8.8 8.8l-15.2 2.4c-4 0.8-8 4-8 7.2s3.2 6.4 8 7.2l15.2 2.4c4 0.8 8.8 4.8 8.8 8.8l2.4 15.2c0.8 4 4 8 7.2 8s6.4-3.2 7.2-8l2.4-16.8c0.8-4 4.8-8 8.8-8.8l14.4-0.8c4.8-1.6 8.8-4.8 8.8-8zM482.4 95.2c0-3.2-3.2-6.4-8-7.2l-15.2-2.4c-4-0.8-8.8-4.8-8.8-8.8L448 61.6c-0.8-4-4-8-7.2-8s-6.4 3.2-7.2 8L432 76.8c-0.8 4-4.8 8.8-8.8 8.8L408 88c-4 0.8-8 4-8 7.2s3.2 6.4 8 7.2l15.2 2.4c4 0.8 8.8 4.8 8.8 8.8l2.4 15.2c0.8 4 4 8 7.2 8s6.4-3.2 7.2-8l2.4-16.8c0.8-4 4.8-8 8.8-8.8l14.4-0.8c4-1.6 8-4 8-7.2zM948.8 800.8c0 17.6-14.4 32-32 32L104 832c-17.6 0-32-14.4-32-32V189.6c0-17.6 14.4-32 32-32h808c17.6 0 32 14.4 32 32l4.8 611.2z" fill="#FFFFFF" p-id="8012"></path><path d="M949.6 280.8H72V189.6c0-17.6 14.4-32 32-32h813.6c4 0 32 14.4 32 32v91.2z" fill="#EAEAEA" p-id="8013"></path><path d="M912 840H104c-22.4 0-40-17.6-40-40V192c0-22.4 17.6-40 40-40h808c10.4 0 20.8 4 28 12 7.2 7.2 12 17.6 12 28v608c0 22.4-17.6 40-40 40zM104 168c-13.6 0-24 10.4-24 24v608c0 13.6 10.4 24 24 24h808c13.6 0 24-10.4 24-24V192c0-6.4-2.4-12-7.2-16.8-4.8-4.8-10.4-7.2-16.8-7.2H104z" fill="#C98A0D" p-id="8014"></path><path d="M360 200h536v40H360z" fill="#D4D6D6" p-id="8015"></path><path d="M72 280h868.8" fill="#FFFFFF" p-id="8016"></path><path d="M940.8 288H72c-4.8 0-8-3.2-8-8s3.2-8 8-8h868.8c4.8 0 8 3.2 8 8s-4 8-8 8z" fill="#C98A0D" p-id="8017"></path><path d="M128 464h304v240H128z" fill="#E2C48F" p-id="8018"></path><path d="M528 376H400c-8.8 0-16-7.2-16-16s7.2-16 16-16h128c8.8 0 16 7.2 16 16s-7.2 16-16 16zM672 376h-56c-8.8 0-16-7.2-16-16s7.2-16 16-16h56c8.8 0 16 7.2 16 16s-7.2 16-16 16zM872 376H760c-8.8 0-16-7.2-16-16s7.2-16 16-16h112c8.8 0 16 7.2 16 16s-7.2 16-16 16z" fill="#3AD0F9" p-id="8019"></path><path d="M288 384H152c-13.6 0-24-10.4-24-24s10.4-24 24-24h136c13.6 0 24 10.4 24 24s-10.4 24-24 24zM616 496H488c-8.8 0-16-7.2-16-16s7.2-16 16-16h128c8.8 0 16 7.2 16 16s-7.2 16-16 16z" fill="#7C6F59" p-id="8020"></path><path d="M784 552H480c-4.8 0-8-3.2-8-8s3.2-8 8-8h304c4.8 0 8 3.2 8 8s-3.2 8-8 8zM616 600H480c-4.8 0-8-3.2-8-8s3.2-8 8-8h136c4.8 0 8 3.2 8 8s-3.2 8-8 8zM752 600H664c-4.8 0-8-3.2-8-8s3.2-8 8-8h88c4.8 0 8 3.2 8 8s-3.2 8-8 8zM576 648H480c-4.8 0-8-3.2-8-8s3.2-8 8-8h96c4.8 0 8 3.2 8 8s-3.2 8-8 8zM672 648h-56c-4.8 0-8-3.2-8-8s3.2-8 8-8h56c4.8 0 8 3.2 8 8s-3.2 8-8 8zM760 648h-48c-4.8 0-8-3.2-8-8s3.2-8 8-8h48c4.8 0 8 3.2 8 8s-3.2 8-8 8zM656 696H480c-4.8 0-8-3.2-8-8s3.2-8 8-8h176c4.8 0 8 3.2 8 8s-3.2 8-8 8zM312 736H136c-4.8 0-8-3.2-8-8s3.2-8 8-8h176c4.8 0 8 3.2 8 8s-3.2 8-8 8z" fill="#D3B888" p-id="8021"></path><path d="M560 768h-72c-8.8 0-16-7.2-16-16s7.2-16 16-16h72c8.8 0 16 7.2 16 16s-7.2 16-16 16z" fill="#3AD0F9" p-id="8022"></path><path d="M224 580.8L155.2 704h193.6L280 580.8c-15.2-28-40-28-56 0z" fill="#CEA76A" p-id="8023"></path><path d="M368 544m-32 0a32 32 0 1 0 64 0 32 32 0 1 0-64 0Z" fill="#F9E3C7" p-id="8024"></path><path d="M264 512c-8.8 0-16-4-16-8s-10.4-8-24-8h-32c-13.6 0-24 4-24 8s7.2 8 16 8 16 4 16 8 10.4 8 24 8h32c13.6 0 24-4 24-8s-7.2-8-16-8z" fill="#F9E3C7" p-id="8025"></path><path d="M212 220m-20 0a20 20 0 1 0 40 0 20 20 0 1 0-40 0Z" fill="#92C438" p-id="8026"></path><path d="M140 220m-20 0a20 20 0 1 0 40 0 20 20 0 1 0-40 0Z" fill="#F74541" p-id="8027"></path><path d="M284 220m-20 0a20 20 0 1 0 40 0 20 20 0 1 0-40 0Z" fill="#FBD000" p-id="8028"></path></svg>