<?xml version="1.0" standalone="no"?><!DOCTYPE svg PUBLIC "-//W3C//DTD SVG 1.1//EN" "http://www.w3.org/Graphics/SVG/1.1/DTD/svg11.dtd"><svg t="1528696779717" class="icon" style="" viewBox="0 0 1024 1024" version="1.1" xmlns="http://www.w3.org/2000/svg" p-id="8392" xmlns:xlink="http://www.w3.org/1999/xlink" width="200" height="200"><defs><style type="text/css"></style></defs><path d="M969.142857 548.571429q0 14.857143-10.857143 25.714285t-25.714285 10.857143h-128q0 97.714286-38.285715 165.714286l118.857143 119.428571q10.857143 10.857143 10.857143 25.714286t-10.857143 25.714286q-10.285714 10.857143-25.714286 10.857143t-25.714285-10.857143l-113.142857-112.571429q-2.857143 2.857143-8.571429 7.428572t-24 16.285714-37.142857 20.857143-46.857143 16.571428-55.428571 7.428572V365.714286H475.428571v512q-29.142857 0-58-7.714286t-49.714285-18.857143-37.714286-22.285714T305.142857 810.285714l-8.571428-8-104.571429 118.285715q-11.428571 12-27.428571 12-13.714286 0-24.571429-9.142858-10.857143-10.285714-11.714286-25.428571T137.142857 871.428571l115.428572-129.714285q-33.142857-65.142857-33.142858-156.571429H91.428571q-14.857143 0-25.714285-10.857143t-10.857143-25.714285 10.857143-25.714286 25.714285-10.857143h128V344L120.571429 245.142857q-10.857143-10.857143-10.857143-25.714286t10.857143-25.714285 25.714285-10.857143 25.714286 10.857143l98.857143 98.857143h482.285714l98.857143-98.857143q10.857143-10.857143 25.714286-10.857143t25.714285 10.857143 10.857143 25.714285-10.857143 25.714286l-98.857142 98.857143v168h128q14.857143 0 25.714285 10.857143t10.857143 25.714286z m-274.285714-329.142858H329.142857q0-76 53.428572-129.428571T512 36.571429t129.428571 53.428571T694.857143 219.428571z" p-id="8393"></path></svg>