<?xml version="1.0" standalone="no"?><!DOCTYPE svg PUBLIC "-//W3C//DTD SVG 1.1//EN" "http://www.w3.org/Graphics/SVG/1.1/DTD/svg11.dtd"><svg t="1528697112617" class="icon" style="" viewBox="0 0 1024 1024" version="1.1" xmlns="http://www.w3.org/2000/svg" p-id="7335" xmlns:xlink="http://www.w3.org/1999/xlink" width="200" height="200"><defs><style type="text/css"></style></defs><path d="M938.688 96l-138.688 0 0-64c0-17.696-14.304-32-32-32s-32 14.304-32 32l0 64-192 0 0-64c0-17.696-14.336-32-32-32s-32 14.304-32 32l0 64-192 0 0-64c0-17.696-14.336-32-32-32s-32 14.304-32 32l0 64-138.656 0c-47.136 0-85.344 38.176-85.344 85.312l0 757.344c0 47.136 38.208 85.344 85.344 85.344l853.344 0c47.136 0 85.312-38.208 85.312-85.344l0-757.344c0-47.136-38.176-85.312-85.312-85.312zM960 938.656c0 11.776-9.568 21.344-21.312 21.344l-853.344 0c-11.776 0-21.344-9.568-21.344-21.344l0-757.344c0-11.744 9.568-21.312 21.344-21.312l138.656 0 0 64c0 17.696 14.336 32 32 32s32-14.304 32-32l0-64 192 0 0 64c0 17.696 14.336 32 32 32s32-14.304 32-32l0-64 192 0 0 64c0 17.696 14.304 32 32 32s32-14.304 32-32l0-64 138.688 0c11.744 0 21.312 9.568 21.312 21.312l0 757.344zM224 384l128 0 0 96-128 0zM224 544l128 0 0 96-128 0zM224 704l128 0 0 96-128 0zM448 704l128 0 0 96-128 0zM448 544l128 0 0 96-128 0zM448 384l128 0 0 96-128 0zM672 704l128 0 0 96-128 0zM672 544l128 0 0 96-128 0zM672 384l128 0 0 96-128 0z" p-id="7336"></path></svg>