<?xml version="1.0" standalone="no"?><!DOCTYPE svg PUBLIC "-//W3C//DTD SVG 1.1//EN" "http://www.w3.org/Graphics/SVG/1.1/DTD/svg11.dtd"><svg t="1528697063056" class="icon" style="" viewBox="0 0 1054 1024" version="1.1" xmlns="http://www.w3.org/2000/svg" p-id="7107" xmlns:xlink="http://www.w3.org/1999/xlink" width="205.859375" height="200"><defs><style type="text/css"></style></defs><path d="M977.188571 0 76.068571 0C35.108571 0 0 35.108571 0 76.068571l0 649.508571c0 40.96 35.108571 76.068571 76.068571 76.068571l368.64 0 0 140.434286L327.68 942.08l0 0c-23.405714 0-40.96 17.554286-40.96 40.96s17.554286 40.96 40.96 40.96l0 0 0 0 0 0 397.897143 0 0 0 0 0 0 0c23.405714 0 40.96-17.554286 40.96-40.96s-17.554286-40.96-40.96-40.96l0 0 0 0 0 0-122.88 0 0-140.434286 368.64 0c40.96 0 76.068571-35.108571 76.068571-76.068571L1047.405714 76.068571C1053.257143 35.108571 1018.148571 0 977.188571 0zM550.034286 947.931429 503.222857 947.931429l0-140.434286 40.96 0L544.182857 947.931429zM1012.297143 725.577143c0 11.702857-11.702857 35.108571-40.96 35.108571L76.068571 760.685714c-17.554286 0-35.108571-11.702857-35.108571-29.257143l0-64.365714 971.337143 0L1012.297143 725.577143zM1012.297143 602.697143 40.96 602.697143l0-526.628571c0-17.554286 11.702857-35.108571 35.108571-35.108571l895.268571 0c23.405714 0 40.96 11.702857 40.96 35.108571L1012.297143 602.697143z" p-id="7108"></path></svg>