<?xml version="1.0" standalone="no"?><!DOCTYPE svg PUBLIC "-//W3C//DTD SVG 1.1//EN" "http://www.w3.org/Graphics/SVG/1.1/DTD/svg11.dtd"><svg t="1528755035083" class="icon" style="" viewBox="0 0 1024 1024" version="1.1" xmlns="http://www.w3.org/2000/svg" p-id="6031" xmlns:xlink="http://www.w3.org/1999/xlink" width="200" height="200"><defs><style type="text/css"></style></defs><path d="M681.301333 426.666667a192 192 0 0 1-381.482666 0h-1.194667V384h1.194667a192 192 0 0 1 381.44 0H768v42.666667h-86.656z m-43.008 0H342.784a149.333333 149.333333 0 0 0 295.509333 0zM342.784 384h295.509333a149.333333 149.333333 0 0 0-295.509333 0z m382.293333 394.069333L629.717333 682.666667H351.658667L256 778.325333V853.333333h469.12v-75.264z m42.666667-17.152V896H213.333333v-135.253333H213.333333L213.333333 760.746667 333.994667 640v0.042667V640h313.088v0.298667l0.256-0.298667 120.704 120.704-0.256 0.213333z" fill="" p-id="6032"></path></svg>