<?xml version="1.0" standalone="no"?><!DOCTYPE svg PUBLIC "-//W3C//DTD SVG 1.1//EN" "http://www.w3.org/Graphics/SVG/1.1/DTD/svg11.dtd"><svg t="1531430651668" class="icon" style="" viewBox="0 0 1560 1024" version="1.1" xmlns="http://www.w3.org/2000/svg" p-id="5140" xmlns:xlink="http://www.w3.org/1999/xlink" width="304.6875" height="200"><defs><style type="text/css"></style></defs><path d="M141.409524 0h1275.123809C1496.990476 0 1560.380952 63.390476 1560.380952 138.971429v746.057142c0 78.019048-63.390476 138.971429-141.409523 138.971429H141.409524C63.390476 1024 0 960.609524 0 885.028571V138.971429C0 63.390476 63.390476 0 141.409524 0z" fill="#D21517" p-id="5141"></path><path d="M0 885.028571C0 960.609524 63.390476 1024 141.409524 1024h1277.561905c78.019048 0 141.409524-60.952381 141.409523-138.971429V341.333333H0v543.695238z" fill="#021270" p-id="5142"></path><path d="M0 341.333333h1560.380952v341.333334H0z" fill="#FFFFFF" p-id="5143"></path><path d="M780.190476 867.961905c121.904762 0 221.866667-99.961905 221.866667-221.866667V380.342857H558.32381v265.752381c0 121.904762 99.961905 221.866667 221.866666 221.866667z" fill="#D21517" p-id="5144"></path><path d="M780.190476 865.52381c119.466667 0 219.428571-97.52381 219.428572-219.428572V385.219048H560.761905v260.87619c0 121.904762 99.961905 219.428571 219.428571 219.428572z" fill="#FFFFFF" p-id="5145"></path><path d="M780.190476 855.771429c114.590476 0 209.67619-95.085714 209.676191-209.676191V392.533333H570.514286v253.561905c0 114.590476 92.647619 209.67619 209.67619 209.676191z" fill="#FFFFFF" p-id="5146"></path><path d="M653.409524 392.533333h-82.895238v92.647619h82.895238zM653.409524 577.828571h85.333333v-92.647619h-85.333333zM570.514286 646.095238c0 7.314286 0 17.066667 2.438095 24.380952h82.895238v-92.647619h-85.333333v68.266667zM821.638095 577.828571h-82.895238v92.647619h82.895238zM821.638095 763.12381h85.333334v-92.64762h-85.333334zM906.971429 814.32381c19.504762-14.628571 34.133333-31.695238 48.761904-51.2h-48.761904v51.2zM653.409524 763.12381h85.333333v-92.64762h-85.333333zM604.647619 763.12381c12.190476 19.504762 29.257143 36.571429 48.761905 51.2v-51.2h-48.761905z" fill="#D21517" p-id="5147"></path><path d="M794.819048 855.771429c9.752381 0 19.504762-2.438095 26.819047-4.876191v-87.771428h-85.333333v87.771428c9.752381 2.438095 17.066667 2.438095 26.819048 4.876191h31.695238zM989.866667 670.47619c0-7.314286 2.438095-17.066667 2.438095-24.380952v-68.266667h-82.895238v92.647619h80.457143zM821.638095 577.828571h85.333334v-92.647619h-85.333334zM821.638095 392.533333h-82.895238v92.647619h82.895238zM989.866667 485.180952v-92.647619h-82.895238v92.647619z" fill="#D21517" p-id="5148"></path><path d="M941.104762 214.552381c-14.628571-17.066667-31.695238-36.571429-46.32381-53.638095-19.504762 12.190476-41.447619 24.380952-60.952381 34.133333-4.87619 46.32381-7.314286 92.647619-12.190476 138.971429 12.190476 0 26.819048 2.438095 41.447619 4.87619 14.628571 2.438095 29.257143 4.87619 43.885715 9.752381 12.190476-43.885714 21.942857-90.209524 34.133333-134.095238z" fill="#021272" p-id="5149"></path><path d="M833.828571 195.047619c-19.504762-14.628571-36.571429-26.819048-56.07619-41.447619-17.066667 14.628571-36.571429 29.257143-53.638095 43.885714 4.87619 46.32381 7.314286 92.647619 12.190476 136.533334h85.333333c4.87619-43.885714 7.314286-90.209524 12.190476-138.971429z" fill="#253DA5" p-id="5150"></path><path d="M724.114286 197.485714c-19.504762-12.190476-41.447619-24.380952-60.952381-34.133333-14.628571 17.066667-31.695238 36.571429-46.32381 53.638095 12.190476 43.885714 21.942857 87.771429 34.133334 134.095238 12.190476-2.438095 26.819048-7.314286 41.447619-9.752381 14.628571-2.438095 29.257143-4.87619 43.885714-4.87619-4.87619-46.32381-7.314286-92.647619-12.190476-138.971429z" fill="#021272" p-id="5151"></path><path d="M616.838095 216.990476c-21.942857-7.314286-43.885714-14.628571-65.828571-24.380952-14.628571 21.942857-26.819048 43.885714-41.447619 65.828571 17.066667 41.447619 36.571429 80.457143 53.638095 121.904762 12.190476-4.87619 24.380952-9.752381 39.009524-14.628571 17.066667-7.314286 34.133333-9.752381 48.761905-14.628572-9.752381-46.32381-21.942857-90.209524-34.133334-134.095238zM1050.819048 258.438095c-14.628571-21.942857-29.257143-46.32381-43.885715-68.266666-21.942857 7.314286-43.885714 17.066667-65.828571 24.380952-12.190476 43.885714-21.942857 90.209524-34.133333 134.095238 12.190476 2.438095 26.819048 7.314286 41.447619 12.190476 17.066667 4.87619 34.133333 12.190476 48.761904 19.504762 17.066667-41.447619 36.571429-80.457143 53.638096-121.904762z" fill="#253DA5" p-id="5152"></path></svg>