<?xml version="1.0" standalone="no"?><!DOCTYPE svg PUBLIC "-//W3C//DTD SVG 1.1//EN" "http://www.w3.org/Graphics/SVG/1.1/DTD/svg11.dtd"><svg t="1528756252940" class="icon" style="" viewBox="0 0 1024 1024" version="1.1" xmlns="http://www.w3.org/2000/svg" p-id="6488" xmlns:xlink="http://www.w3.org/1999/xlink" width="200" height="200"><defs><style type="text/css"></style></defs><path d="M448 853.333333L170.666667 576l-64 4.266667 168.533333-168.533334 72.106667-12.373333L533.333333 213.333333H810.666667v277.333334l-185.6 185.6-12.501334 72.832-168.533333 168.533333L448 853.333333z m0-58.922666l320.981333-320.981334v-218.453333h-218.410666L229.589333 576l218.453334 218.453333zM597.333333 341.333333a85.333333 85.333333 0 1 1 0 170.666667 85.333333 85.333333 0 0 1 0-170.666667z m0 42.666667a42.666667 42.666667 0 1 0 0 85.333333 42.666667 42.666667 0 0 0 0-85.333333z m-291.968 356.565333l-83.2 83.2L192 793.6l83.2-83.2 30.165333 30.165333z" fill="" p-id="6489"></path></svg>