<?xml version="1.0" standalone="no"?><!DOCTYPE svg PUBLIC "-//W3C//DTD SVG 1.1//EN" "http://www.w3.org/Graphics/SVG/1.1/DTD/svg11.dtd"><svg t="1528756261067" class="icon" style="" viewBox="0 0 1024 1024" version="1.1" xmlns="http://www.w3.org/2000/svg" p-id="6602" xmlns:xlink="http://www.w3.org/1999/xlink" width="200" height="200"><defs><style type="text/css"></style></defs><path d="M364.202667 417.194667l138.325333-138.325334-30.165333-30.208 90.496-90.453333 271.530666 271.488-90.496 90.496-30.165333-30.165333-138.368 138.368 60.330667 60.330666-90.453334 90.496L213.333333 447.36l90.496-90.496 60.373334 60.330667z m-90.538667 30.165333l271.530667 271.530667 30.165333-30.165334-60.330667-60.330666 198.698667-198.698667 30.165333 30.165333 30.165334-30.165333-211.2-211.2-30.165334 30.165333 30.165334 30.208-198.656 198.656L303.786667 417.194667l-30.165334 30.165333zM326.698667 640l30.165333 30.165333-198.698667 198.698667L128 838.698667 326.698667 640z" fill="#444444" p-id="6603"></path></svg>