<?xml version="1.0" standalone="no"?><!DOCTYPE svg PUBLIC "-//W3C//DTD SVG 1.1//EN" "http://www.w3.org/Graphics/SVG/1.1/DTD/svg11.dtd"><svg t="1528605609348" class="icon" style="" viewBox="0 0 1024 1024" version="1.1" xmlns="http://www.w3.org/2000/svg" p-id="4846" xmlns:xlink="http://www.w3.org/1999/xlink" width="200" height="200"><defs><style type="text/css"></style></defs><path d="M789.333333 384h128v512h-128zM618.666667 554.666667h128v341.333333h-128zM448 469.333333h128v426.666667h-128zM277.333333 682.666667h128v213.333333h-128zM106.666667 597.333333h128v298.666667H106.666667z" fill="#00BCD4" p-id="4847"></path><path d="M170.666667 341.333333m-64 0a64 64 0 1 0 128 0 64 64 0 1 0-128 0Z" fill="#3F51B5" p-id="4848"></path><path d="M341.333333 384m-64 0a64 64 0 1 0 128 0 64 64 0 1 0-128 0Z" fill="#3F51B5" p-id="4849"></path><path d="M512 234.666667m-64 0a64 64 0 1 0 128 0 64 64 0 1 0-128 0Z" fill="#3F51B5" p-id="4850"></path><path d="M682.666667 277.333333m-64 0a64 64 0 1 0 128 0 64 64 0 1 0-128 0Z" fill="#3F51B5" p-id="4851"></path><path d="M853.333333 192m-64 0a64 64 0 1 0 128 0 64 64 0 1 0-128 0Z" fill="#3F51B5" p-id="4852"></path><path d="M834.133333 153.6l-155.733333 78.933333-177.066667-44.8-170.666666 149.333334-149.333334-36.266667-21.333333 81.066667 192 49.066666 170.666667-149.333333 164.266666 40.533333 185.6-91.733333z" fill="#3F51B5" p-id="4853"></path></svg>