<?xml version="1.0" standalone="no"?><!DOCTYPE svg PUBLIC "-//W3C//DTD SVG 1.1//EN" "http://www.w3.org/Graphics/SVG/1.1/DTD/svg11.dtd"><svg t="1528526336593" class="icon" style="" viewBox="0 0 1024 1024" version="1.1" xmlns="http://www.w3.org/2000/svg" p-id="4580" xmlns:xlink="http://www.w3.org/1999/xlink" width="200" height="200"><defs><style type="text/css"></style></defs><path d="M704 896H106.666667V85.333333h405.333333l192 192z" fill="#90CAF9" p-id="4581"></path><path d="M672 298.666667H490.666667V117.333333z" fill="#E1F5FE" p-id="4582"></path><path d="M736.106667 801.706667l42.24-42.24 180.970666 181.013333-42.24 42.24z" fill="#616161" p-id="4583"></path><path d="M597.333333 618.666667m-234.666666 0a234.666667 234.666667 0 1 0 469.333333 0 234.666667 234.666667 0 1 0-469.333333 0Z" fill="#616161" p-id="4584"></path><path d="M597.333333 618.666667m-192 0a192 192 0 1 0 384 0 192 192 0 1 0-384 0Z" fill="#90CAF9" p-id="4585"></path><path d="M786.112 850.773333l42.24-42.24 131.2 131.221334-42.24 42.24z" fill="#37474F" p-id="4586"></path><path d="M640 661.333333h-206.933333c8.533333 34.133333 27.733333 64 53.333333 85.333334H640v-85.333334zM433.066667 576H640v-85.333333h-155.733333c-25.6 21.333333-42.666667 51.2-51.2 85.333333zM428.8 426.666667H234.666667v42.666666h155.733333c10.666667-14.933333 23.466667-29.866667 38.4-42.666666zM364.8 512H234.666667v42.666667h115.2c4.266667-14.933333 8.533333-29.866667 14.933333-42.666667zM341.333333 618.666667c0-6.4 0-14.933333 2.133334-21.333334H234.666667v42.666667h108.8c-2.133333-6.4-2.133333-14.933333-2.133334-21.333333zM349.866667 682.666667H234.666667v42.666666h130.133333c-6.4-12.8-10.666667-27.733333-14.933333-42.666666z" fill="#1976D2" p-id="4587"></path></svg>