<?xml version="1.0" standalone="no"?><!DOCTYPE svg PUBLIC "-//W3C//DTD SVG 1.1//EN" "http://www.w3.org/Graphics/SVG/1.1/DTD/svg11.dtd"><svg t="1530217862793" class="icon" style="" viewBox="0 0 1024 1024" version="1.1" xmlns="http://www.w3.org/2000/svg" p-id="1207" xmlns:xlink="http://www.w3.org/1999/xlink" width="200" height="200"><defs><style type="text/css"></style></defs><path d="M500.672 546.048l317.632 0c18.816 0 34.048-15.232 34.048-34.048l0 0c0-18.816-15.232-34.048-34.048-34.048L500.672 477.952C481.856 477.952 466.624 493.184 466.624 512l0 0C466.624 530.816 481.856 546.048 500.672 546.048z" p-id="1208" fill="#ffffff"></path><path d="M593.344 99.072 593.344 99.072c-13.312-13.312-34.816-13.312-48.128 0l-345.6 345.6c-37.184 37.184-37.184 97.536 0 134.72l345.6 345.6c13.312 13.312 34.816 13.312 48.128 0l0 0c13.312-13.312 13.312-34.816 0-48.128l-345.6-345.6c-10.624-10.624-10.624-27.84 0-38.528l345.6-345.6C606.592 133.888 606.592 112.32 593.344 99.072z" p-id="1209" fill="#ffffff"></path></svg>