<?xml version="1.0" standalone="no"?><!DOCTYPE svg PUBLIC "-//W3C//DTD SVG 1.1//EN" "http://www.w3.org/Graphics/SVG/1.1/DTD/svg11.dtd"><svg t="1530145773523" class="icon" style="" viewBox="0 0 1024 1024" version="1.1" xmlns="http://www.w3.org/2000/svg" p-id="945" xmlns:xlink="http://www.w3.org/1999/xlink" width="200" height="200"><defs><style type="text/css"></style></defs><path d="M736 480 397.248 480 529.152 348.16C541.632 335.68 541.632 315.52 529.152 302.72 516.639983 290.24 496.384 290.24 483.871983 302.72L302.848 483.84C295.200017 491.52 292.8 502.08 294.559983 512 292.8 521.92 295.200017 532.48 302.848 540.16L483.871983 721.28C496.384 733.76 516.639983 733.76 529.152 721.28 541.632 708.8 541.632 688.32 529.152 675.84L397.248 544 736 544C753.664 544 768 529.6 768 512 768 494.4 753.664 480 736 480L736 480ZM512 960C264.576 960 64 759.36 64 512 64 264.64 264.576 64 512 64 759.424 64 960 264.64 960 512 960 759.36 759.424 960 512 960L512 960ZM512 0C229.248 0 0 229.12 0 512 0 794.88 229.248 1024 512 1024 794.752 1024 1024 794.88 1024 512 1024 229.12 794.752 0 512 0L512 0Z" p-id="946"></path></svg>