<?xml version="1.0" standalone="no"?><!DOCTYPE svg PUBLIC "-//W3C//DTD SVG 1.1//EN" "http://www.w3.org/Graphics/SVG/1.1/DTD/svg11.dtd"><svg t="1528697620932" class="icon" style="" viewBox="0 0 1024 1024" version="1.1" xmlns="http://www.w3.org/2000/svg" p-id="6829" xmlns:xlink="http://www.w3.org/1999/xlink" width="200" height="200"><defs><style type="text/css"></style></defs><path d="M682.666667 778.112L587.221333 682.666667h-278.186666L213.333333 778.368V853.333333h469.333334v-75.221333z m42.666666-17.194667V896H170.666667v-135.253333h0.085333L170.666667 760.661333 291.328 640l0.085333 0.085333V640h313.173334v0.298667l0.298666-0.298667 120.704 120.661333-0.256 0.256zM767.872 853.333333h42.581333v-75.264L715.008 682.666667h-18.133333l-35.541334-42.666667h-121.002666 192.042666v0.298667l0.298667-0.298667 120.704 120.704-0.256 0.213333V896h-319.914667 234.581334l0.085333-42.666667z m-234.624-262.186666a149.290667 149.290667 0 0 0 64-38.613334 106.666667 106.666667 0 0 0 85.248-104.533333v-85.333333a106.666667 106.666667 0 0 0-85.205333-104.533334 149.290667 149.290667 0 0 0-64.042667-38.613333 149.290667 149.290667 0 0 1 191.914667 143.104V448a149.290667 149.290667 0 0 1-191.914667 143.104zM448 213.333333A149.333333 149.333333 0 0 1 597.333333 362.666667v85.333333a149.333333 149.333333 0 1 1-298.666666 0v-85.333333A149.333333 149.333333 0 0 1 448 213.333333z m0 42.666667A106.666667 106.666667 0 0 0 341.333333 362.666667v85.333333a106.666667 106.666667 0 1 0 213.333334 0v-85.333333A106.666667 106.666667 0 0 0 448 256z" fill="#444444" p-id="6830"></path></svg>