<?xml version="1.0" standalone="no"?><!DOCTYPE svg PUBLIC "-//W3C//DTD SVG 1.1//EN" "http://www.w3.org/Graphics/SVG/1.1/DTD/svg11.dtd"><svg t="1531417191933" class="icon" style="" viewBox="0 0 1024 1024" version="1.1" xmlns="http://www.w3.org/2000/svg" p-id="9189" xmlns:xlink="http://www.w3.org/1999/xlink" width="200" height="200"><defs><style type="text/css"></style></defs><path d="M704 373.76 232.96 373.76c-15.36 0-25.6-10.24-25.6-25.6s10.24-25.6 25.6-25.6l473.6 0c15.36 0 25.6 10.24 25.6 25.6S719.36 373.76 704 373.76z" p-id="9190" fill="#e6e6e6"></path><path d="M399.36 578.56 232.96 578.56c-15.36 0-25.6-10.24-25.6-25.6s10.24-25.6 25.6-25.6l166.4 0c15.36 0 25.6 10.24 25.6 25.6S412.16 578.56 399.36 578.56z" p-id="9191" fill="#e6e6e6"></path><path d="M360.96 760.32l-128 0c-15.36 0-25.6-10.24-25.6-25.6s10.24-25.6 25.6-25.6l128 0c15.36 0 25.6 10.24 25.6 25.6S376.32 760.32 360.96 760.32z" p-id="9192" fill="#e6e6e6"></path><path d="M954.88 0l-225.28 0c-15.36 0-25.6 10.24-25.6 25.6l0 64c0 5.12-2.56 12.8-12.8 12.8-7.68 0-355.84 0-363.52 0-2.56 0-12.8 0-12.8-12.8L314.88 25.6c0-15.36-10.24-25.6-25.6-25.6L66.56 0c-15.36 0-25.6 10.24-25.6 25.6 0 0 0 0 0 0 0 0 0 0 0 0l0 972.8c0 15.36 10.24 25.6 25.6 25.6l417.28 0c15.36 0 25.6-10.24 25.6-25.6s-10.24-25.6-25.6-25.6L92.16 972.8 92.16 51.2l174.08 0 0 38.4c0 23.04 15.36 61.44 58.88 64 12.8 0 343.04 2.56 373.76 0 43.52-5.12 58.88-40.96 58.88-64L757.76 51.2l174.08 0 0 437.76c0 15.36 10.24 25.6 25.6 25.6s25.6-10.24 25.6-25.6L983.04 25.6C980.48 12.8 967.68 0 954.88 0z" p-id="9193" fill="#e6e6e6"></path><path d="M619.52 51.2l-230.4 0c-15.36 0-25.6-10.24-25.6-25.6s10.24-25.6 25.6-25.6l230.4 0c15.36 0 25.6 10.24 25.6 25.6S632.32 51.2 619.52 51.2z" p-id="9194" fill="#e6e6e6"></path><path d="M704 463.36c-153.6 0-279.04 125.44-279.04 279.04s125.44 279.04 279.04 279.04S983.04 896 983.04 742.4 857.6 463.36 704 463.36zM875.52 760.32l-163.84 0c-15.36 0-25.6-10.24-25.6-25.6L686.08 588.8c0-15.36 10.24-25.6 25.6-25.6s25.6 10.24 25.6 25.6l0 117.76 138.24 0c15.36 0 25.6 10.24 25.6 25.6S890.88 760.32 875.52 760.32z" p-id="9195" fill="#e6e6e6"></path></svg>