<?xml version="1.0" standalone="no"?><!DOCTYPE svg PUBLIC "-//W3C//DTD SVG 1.1//EN" "http://www.w3.org/Graphics/SVG/1.1/DTD/svg11.dtd"><svg t="1528697645404" class="icon" style="" viewBox="0 0 1024 1024" version="1.1" xmlns="http://www.w3.org/2000/svg" p-id="6943" xmlns:xlink="http://www.w3.org/1999/xlink" width="200" height="200"><defs><style type="text/css"></style></defs><path d="M506.453333 895.658667a362.666667 362.666667 0 1 1 4.138667-724.48h1.92l0.085333 0.128a362.666667 362.666667 0 0 1 51.413334 717.269333 316.330667 316.330667 0 0 1-57.557334 7.082667z m-34.346666-42.837334V706.56L410.88 624.725333l122.410667-122.368 61.738666 61.738667h115.242667l77.568 77.568v10.538667a320 320 0 0 0-267.136-437.504c-16.554667 16.938667-46.72 46.976-90.538667 90.24l58.965334 58.922666v111.317334l-99.413334 99.413333-183.466666-187.989333a320 320 0 0 0 265.898666 466.176zM325.504 261.12a312.746667 312.746667 0 0 0-95.402667 88.874667l160 163.84 56.362667-56.32v-75.946667L369.621333 304.725333l15.317334-15.104c30.250667-29.824 54.784-54.144 73.6-72.874666-47.872 5.461333-91.050667 19.114667-133.034667 44.373333z m189.312 431.274667v7.082666c-0.085333 68.010667-0.085333 119.04-0.042667 153.088 44.330667-2.901333 91.562667-17.408 135.978667-43.52a325.546667 325.546667 0 0 0 94.421333-83.2v-66.517333l-52.565333-52.565333h-115.285333L533.333333 562.688l-66.133333 66.090667 47.658667 63.573333z" fill="" p-id="6944"></path></svg>