<?xml version="1.0" standalone="no"?><!DOCTYPE svg PUBLIC "-//W3C//DTD SVG 1.1//EN" "http://www.w3.org/Graphics/SVG/1.1/DTD/svg11.dtd"><svg t="1528757156453" class="icon" style="" viewBox="0 0 1024 1024" version="1.1" xmlns="http://www.w3.org/2000/svg" p-id="7058" xmlns:xlink="http://www.w3.org/1999/xlink" width="200" height="200"><defs><style type="text/css"></style></defs><path d="M681.130667 768H810.666667V298.666667H170.666667v469.333333h428.202666c-29.44-34.261333-44.202667-62.72-44.202666-85.333333a85.333333 85.333333 0 0 1 170.666666 0c0 22.613333-14.72 51.072-44.202666 85.333333z m-82.261334 0H512v42.666667h256v-42.666667h-86.869333c-11.52 13.354667-25.173333 27.562667-41.130667 42.666667a586.666667 586.666667 0 0 1-41.130667-42.666667zM853.333333 256v554.666667H128V256h725.333333z m-213.333333 469.333333a42.666667 42.666667 0 1 0 0-85.333333 42.666667 42.666667 0 0 0 0 85.333333z" fill="#444444" p-id="7059"></path></svg>