<?xml version="1.0" standalone="no"?><!DOCTYPE svg PUBLIC "-//W3C//DTD SVG 1.1//EN" "http://www.w3.org/Graphics/SVG/1.1/DTD/svg11.dtd"><svg t="1528756300530" class="icon" style="" viewBox="0 0 1024 1024" version="1.1" xmlns="http://www.w3.org/2000/svg" p-id="6716" xmlns:xlink="http://www.w3.org/1999/xlink" width="200" height="200"><defs><style type="text/css"></style></defs><path d="M768 746.666667V853.333333h-42.666667v-85.333333h-85.333333l42.666667-42.666667h85.333333v21.333334zM256 853.333333h512v42.666667H213.333333v-128h42.666667v85.333333z m409.045333-290.986666a234.666667 234.666667 0 1 0-349.909333-1.28h0.042667l175.573333 175.573333 174.293333-174.293333z m16.725334 43.605333l-189.184 189.226667-1.834667-1.792-1.792 1.792L299.648 605.866667l-0.256 0.298666a277.333333 277.333333 0 1 1 397.098667-14.933333l-0.512 0.512a279.04 279.04 0 0 1-14.08 14.421333l-0.128-0.213333zM490.666667 512a106.666667 106.666667 0 1 1 0-213.333333 106.666667 106.666667 0 0 1 0 213.333333z m0-42.666667a64 64 0 1 0 0-128 64 64 0 0 0 0 128zM213.333333 725.333333h85.333334l42.666666 42.666667H213.333333v-42.666667z" fill="#444444" p-id="6717"></path></svg>