<?xml version="1.0" standalone="no"?><!DOCTYPE svg PUBLIC "-//W3C//DTD SVG 1.1//EN" "http://www.w3.org/Graphics/SVG/1.1/DTD/svg11.dtd"><svg t="1532046087374" class="icon" style="" viewBox="0 0 1024 1024" version="1.1" xmlns="http://www.w3.org/2000/svg" p-id="10015" xmlns:xlink="http://www.w3.org/1999/xlink" width="200" height="200"><defs><style type="text/css"></style></defs><path d="M1021.738667 434.517333v153.301334c0 5.930667-2.133333 11.008-6.357334 15.317333-4.266667 4.181333-9.386667 6.4-15.232 6.4h-33.237333V412.757333h33.237333c5.888 0 11.008 2.133333 15.232 6.357334a21.162667 21.162667 0 0 1 6.357334 15.402666z m-21.632 197.717334c5.888 0 11.008 2.133333 15.232 6.357333s6.357333 9.386667 6.357333 15.232v153.898667c0 5.973333-2.133333 11.008-6.357333 15.36a21.205333 21.205333 0 0 1-15.232 6.229333h-33.237334v-197.162667h33.237334z m0-439.04c5.888 0 11.392 2.176 16.384 6.4a19.754667 19.754667 0 0 1 7.509333 15.36v153.344a19.456 19.456 0 0 1-7.509333 15.573333 26.368 26.368 0 0 1-16.384 5.76h-54.997334v472.917333c0 5.76-2.261333 10.24-6.698666 14.122667a26.069333 26.069333 0 0 1-15.530667 5.12h-286.037333v-96.64h222.165333v-46.122667h-222.165333v-54.314666h222.165333v-43.562667h-222.165333v-55.68h222.165333v-42.88h-222.165333v-54.357333h222.165333v-42.922667h-222.165333V389.632h222.165333v-43.52h-222.165333V291.712h222.165333V246.272h-222.165333V138.197333h293.845333c0.682667 0 3.2 1.877333 7.210667 5.76a24.746667 24.746667 0 0 1 7.253333 14.677334v34.602666h54.954667zM582.229333 28.330667v967.338666L0 895.146667V131.456L582.272 28.373333l-0.042667-0.042666z m-166.101333 286.72l-68.309333 4.48v127.104c-0.768 74.453333-0.768 117.461333 0 128.896L211.712 327.253333l-69.504 2.730667v352.256l54.357333 4.437333v-259.925333l146.773334 267.306667 72.746666 4.437333V315.050667z" fill="#733781" p-id="10016"></path></svg>