<?xml version="1.0" standalone="no"?><!DOCTYPE svg PUBLIC "-//W3C//DTD SVG 1.1//EN" "http://www.w3.org/Graphics/SVG/1.1/DTD/svg11.dtd"><svg t="1528697695246" class="icon" style="" viewBox="0 0 1024 1024" version="1.1" xmlns="http://www.w3.org/2000/svg" p-id="7171" xmlns:xlink="http://www.w3.org/1999/xlink" width="200" height="200"><defs><style type="text/css"></style></defs><path d="M853.333333 640h85.333334v128h-213.333334v-128h85.333334v-128h42.666666v128zM256 640h85.333333v128H128v-128h85.333333v-128h42.666667v128z m298.666667-298.666667v128h298.666666v42.666667h-298.666666v128h-42.666667v-128H213.333333v-42.666667h298.666667V341.333333h-85.333333V213.333333h213.333333v128h-85.333333z m85.333333 298.666667v128h-213.333333v-128h213.333333z m-42.666667-384h-128v42.666667h128V256zM298.666667 682.666667H170.666667v42.666666h128v-42.666666z m597.333333 0h-128v42.666666h128v-42.666666z m-298.666667 0h-128v42.666666h128v-42.666666z" fill="" p-id="7172"></path></svg>