<?xml version="1.0" standalone="no"?><!DOCTYPE svg PUBLIC "-//W3C//DTD SVG 1.1//EN" "http://www.w3.org/Graphics/SVG/1.1/DTD/svg11.dtd"><svg t="1528757186194" class="icon" style="" viewBox="0 0 1024 1024" version="1.1" xmlns="http://www.w3.org/2000/svg" p-id="7286" xmlns:xlink="http://www.w3.org/1999/xlink" width="200" height="200"><defs><style type="text/css"></style></defs><path d="M460.544 913.066667l-196.138667-196.138667a322.304 322.304 0 0 1-2.730666-2.730667l-6.101334-6.101333 0.170667-0.170667a320 320 0 1 1 469.930667-0.042666l0.213333 0.213333-205.013333 204.970667 0.213333 0.170666-30.208 30.165334-0.170667-0.170667-0.170666 0.170667-30.165334-30.165334 0.170667-0.170666z m30.165333-30.165334l196.096-196.096a277.333333 277.333333 0 1 0-394.709333-2.56l198.613333 198.656zM490.666667 640a149.333333 149.333333 0 1 1 0-298.666667 149.333333 149.333333 0 0 1 0 298.666667z m0-42.666667a106.666667 106.666667 0 1 0 0-213.333333 106.666667 106.666667 0 0 0 0 213.333333z" fill="#444444" p-id="7287"></path></svg>