<?xml version="1.0" standalone="no"?><!DOCTYPE svg PUBLIC "-//W3C//DTD SVG 1.1//EN" "http://www.w3.org/Graphics/SVG/1.1/DTD/svg11.dtd"><svg t="1528697713741" class="icon" style="" viewBox="0 0 1024 1024" version="1.1" xmlns="http://www.w3.org/2000/svg" p-id="7285" xmlns:xlink="http://www.w3.org/1999/xlink" width="200" height="200"><defs><style type="text/css"></style></defs><path d="M576 597.333333h21.333333v42.666667h-106.666666A106.666667 106.666667 0 0 1 384 533.333333v-42.666666a106.666667 106.666667 0 1 1 213.333333 0v42.666666c0 24.021333-7.936 46.165333-21.333333 64z m-85.333333-426.666666c119.04 64 218.453333 119.466667 320 170.666666 0 227.541333-106.666667 455.125333-320 597.333334C277.333333 796.458667 170.666667 568.874667 170.666667 341.333333c93.226667-51.2 199.893333-106.666667 320-170.666666zM423.082667 254.848l-41.898667 22.186667-40.618667 21.461333a12959.573333 12959.573333 0 0 0-126.762666 67.882667c7.381333 205.354667 105.813333 395.818667 276.864 520.32a668.757333 668.757333 0 0 0 276.864-519.424c-27.648-14.165333-56.576-29.312-88.704-46.464-32.768-17.493333-139.818667-75.52-188.288-101.717334l-67.456 35.754667zM490.666667 426.666667a64 64 0 0 0-64 64v42.666666a64 64 0 0 0 128 0v-42.666666a64 64 0 0 0-64-64z" fill="#444444" p-id="7286"></path></svg>