<?xml version="1.0" standalone="no"?><!DOCTYPE svg PUBLIC "-//W3C//DTD SVG 1.1//EN" "http://www.w3.org/Graphics/SVG/1.1/DTD/svg11.dtd"><svg t="1528697737522" class="icon" style="" viewBox="0 0 1024 1024" version="1.1" xmlns="http://www.w3.org/2000/svg" p-id="7513" xmlns:xlink="http://www.w3.org/1999/xlink" width="200" height="200"><defs><style type="text/css"></style></defs><path d="M554.666667 651.733333V512h256v384h-256V712.106667l-63.701334 63.658666-0.682666-0.682666-0.682667 0.682666L384 670.165333 414.165333 640l76.117334 76.117333L554.666667 651.690667zM768 554.666667h-170.666667v298.666666h170.666667v-298.666666z m-341.333333-21.333334V896H170.666667v-384h256v21.333333zM384 554.666667H213.333333v298.666666h170.666667v-298.666666z m426.666667-213.333334a128 128 0 1 1-256 0 128 128 0 0 1 256 0z m-42.666667 0a85.333333 85.333333 0 1 0-170.666667 0 85.333333 85.333333 0 0 0 170.666667 0z m-341.333333 0a128 128 0 1 1-256 0 128 128 0 0 1 256 0zM384 341.333333a85.333333 85.333333 0 1 0-170.666667 0 85.333333 85.333333 0 0 0 170.666667 0z" fill="" p-id="7514"></path></svg>