<?xml version="1.0" standalone="no"?><!DOCTYPE svg PUBLIC "-//W3C//DTD SVG 1.1//EN" "http://www.w3.org/Graphics/SVG/1.1/DTD/svg11.dtd"><svg t="1528697395099" class="icon" style="" viewBox="0 0 1024 1024" version="1.1" xmlns="http://www.w3.org/2000/svg" p-id="5917" xmlns:xlink="http://www.w3.org/1999/xlink" width="200" height="200"><defs><style type="text/css"></style></defs><path d="M730.88 480l110.805333 64-110.848 64 110.848 64L490.666667 874.666667l-351.018667-202.666667 110.848-64-110.848-64 110.848-64-110.848-64L490.666667 213.333333l351.018666 202.666667-110.848 64z m-400.810667 45.952l-19.754666 11.392 180.266666 104.106667 180.266667-104.106667-19.669333-11.349333L490.666667 618.666667l-160.597334-92.714667z m321.109334 128.042667L490.666667 746.666667l-160.597334-92.714667-19.754666 11.392 180.266666 104.106667 180.266667-104.106667-19.669333-11.349333z m-160.597334-348.714667L310.314667 409.344l180.266666 104.106667 180.266667-104.106667-180.266667-104.106667z" fill="" p-id="5918"></path></svg>