<?xml version="1.0" standalone="no"?><!DOCTYPE svg PUBLIC "-//W3C//DTD SVG 1.1//EN" "http://www.w3.org/Graphics/SVG/1.1/DTD/svg11.dtd"><svg t="1528697731989" class="icon" style="" viewBox="0 0 1024 1024" version="1.1" xmlns="http://www.w3.org/2000/svg" p-id="7399" xmlns:xlink="http://www.w3.org/1999/xlink" width="200" height="200"><defs><style type="text/css"></style></defs><path d="M640 725.333333v-42.666666h170.666667v42.666666h85.333333v42.666667h-85.333333v42.666667h-170.666667v-42.666667H128v-42.666667h512z m-213.333333-213.333333v-42.666667h170.666666v42.666667h298.666667v42.666667h-298.666667v42.666666h-170.666666v-42.666666H128v-42.666667h298.666667zM213.333333 298.666667V256h170.666667v42.666667h512v42.666666H384v42.666667H213.333333V341.333333H128V298.666667h85.333333z m128 0H256v42.666666h85.333333V298.666667z m213.333334 213.333333h-85.333334v42.666667h85.333334v-42.666667z m213.333333 213.333333h-85.333333v42.666667h85.333333v-42.666667z" fill="" p-id="7400"></path></svg>