<?xml version="1.0" standalone="no"?><!DOCTYPE svg PUBLIC "-//W3C//DTD SVG 1.1//EN" "http://www.w3.org/Graphics/SVG/1.1/DTD/svg11.dtd"><svg t="1528697427657" class="icon" style="" viewBox="0 0 1024 1024" version="1.1" xmlns="http://www.w3.org/2000/svg" p-id="6145" xmlns:xlink="http://www.w3.org/1999/xlink" width="200" height="200"><defs><style type="text/css"></style></defs><path d="M480.426667 518.229333L572.032 426.666667l60.330667 60.330666-146.218667 146.218667v-0.042667l-5.76 5.717334-109.184-109.226667L431.530667 469.333333l48.896 48.896zM490.666667 170.666667c119.04 64 218.453333 119.466667 320 170.666666 0 227.541333-106.666667 455.125333-320 597.333334C277.333333 796.458667 170.666667 568.874667 170.666667 341.333333c93.226667-51.2 199.893333-106.666667 320-170.666666z m-57.6 123.221333l-35.626667 18.858667-34.56 18.304a11025.92 11025.92 0 0 0-107.861333 57.728 569.130667 569.130667 0 0 0 235.605333 442.752A569.002667 569.002667 0 0 0 726.186667 389.546667a5021.013333 5021.013333 0 0 1-75.434667-39.552c-27.904-14.890667-118.954667-64.256-160.213333-86.613334l-57.429334 30.464z" fill="#444444" p-id="6146"></path></svg>