<?xml version="1.0" standalone="no"?><!DOCTYPE svg PUBLIC "-//W3C//DTD SVG 1.1//EN" "http://www.w3.org/Graphics/SVG/1.1/DTD/svg11.dtd"><svg t="1531431104002" class="icon" style="" viewBox="0 0 1560 1024" version="1.1" xmlns="http://www.w3.org/2000/svg" p-id="6105" xmlns:xlink="http://www.w3.org/1999/xlink" width="304.6875" height="200"><defs><style type="text/css"></style></defs><path d="M141.409524 0h1275.123809C1496.990476 0 1560.380952 63.390476 1560.380952 138.971429v746.057142c0 78.019048-63.390476 138.971429-141.409523 138.971429H141.409524C63.390476 1024 0 960.609524 0 885.028571V138.971429C0 63.390476 63.390476 0 141.409524 0z" fill="#FFFFFF" p-id="6106"></path><path d="M282.989714 340.601905l147.407238-221.086476 36.522667 24.33219-147.407238 221.110857zM337.188571 376.198095l147.382858-221.135238 36.522666 24.332191-147.407238 221.135238zM227.961905 302.811429l147.407238-221.110858 36.498286 24.356572-147.407239 221.110857zM1227.776 796.281905l67.632762-101.424762 36.498286 24.33219-67.608381 101.424762zM1094.168381 878.738286l67.632762-101.424762 36.498286 24.33219-67.608381 101.424762zM1171.407238 760.441905l67.632762-101.424762 36.498286 24.356571-67.608381 101.424762zM1037.775238 842.947048l67.632762-101.424762 36.498286 24.33219-67.608381 101.424762zM1147.172571 916.333714l67.608381-101.449143 36.522667 24.332191-67.632762 101.449143zM1118.841905 722.895238l67.632762-101.449143 36.522666 24.332191-67.632762 101.424762z" fill="" p-id="6107"></path><path d="M632.826131 733.102951a265.752381 265.752381 0 1 0 294.809837-442.249332 265.752381 265.752381 0 1 0-294.809837 442.249332Z" fill="#CE1126" p-id="6108"></path><path d="M560.761905 365.714286c-41.447619 60.952381-24.380952 143.847619 36.571428 182.857143 60.952381 41.447619 143.847619 24.380952 182.857143-36.571429 41.447619-60.952381 121.904762-78.019048 182.857143-36.571429s78.019048 121.904762 36.571429 182.857143c-80.457143 121.904762-243.809524 156.038095-365.714286 73.142857s-156.038095-243.809524-73.142857-365.714285" fill="#003F87" p-id="6109"></path><path d="M1228.068571 227.230476l36.522667-24.380952 67.608381 101.424762-36.498286 24.380952zM1118.549333 300.153905l36.522667-24.332191 67.608381 101.424762-36.498286 24.356572zM1037.775238 180.833524l36.522667-24.356572 67.608381 101.424762-36.522667 24.356572zM1147.489524 107.910095l36.522666-24.33219 67.632762 101.424762-36.522666 24.356571zM1214.171429 248.685714l-24.380953-36.571428-60.952381-92.647619-36.571428 24.380952 60.952381 92.647619 19.504762 26.819048 65.828571 102.4 39.009524-24.380953z" fill="" p-id="6110"></path><path d="M412.038095 758.247619l7.314286 7.314286 65.828571 102.4 36.571429-24.380953-146.285714-221.866666-36.571429 24.380952zM362.057143 802.816l36.522667-24.356571 67.632761 101.424761-36.522666 24.356572zM346.209524 814.32381l-12.190476-17.066667-68.266667-102.4-36.571429 24.380952 146.285715 221.866667 36.571428-24.380952zM284.476952 682.959238l36.522667-24.33219 67.608381 101.424762-36.522667 24.33219z" fill="" p-id="6111"></path></svg>