<?xml version="1.0" standalone="no"?><!DOCTYPE svg PUBLIC "-//W3C//DTD SVG 1.1//EN" "http://www.w3.org/Graphics/SVG/1.1/DTD/svg11.dtd"><svg t="1531430626641" class="icon" style="" viewBox="0 0 1560 1024" version="1.1" xmlns="http://www.w3.org/2000/svg" p-id="4979" xmlns:xlink="http://www.w3.org/1999/xlink" width="304.6875" height="200"><defs><style type="text/css"></style></defs><path d="M141.409524 0h1275.123809C1496.990476 0 1560.380952 63.390476 1560.380952 138.971429v746.057142c0 78.019048-63.390476 138.971429-141.409523 138.971429H141.409524C63.390476 1024 0 960.609524 0 885.028571V138.971429C0 63.390476 63.390476 0 141.409524 0z" fill="#BC091C" p-id="4980"></path><path d="M0 885.028571C0 960.609524 63.390476 1024 141.409524 1024h1277.561905c78.019048 0 141.409524-60.952381 141.409523-138.971429V341.333333H0v543.695238z" fill="#BC091C" p-id="4981"></path><path d="M0 224.304762h1560.380952v572.952381H0z" fill="#FFC400" p-id="4982"></path><path d="M277.942857 441.295238c0 2.438095 2.438095 2.438095 0 0 2.438095 2.438095 2.438095 2.438095 4.876191 2.438095h2.438095v2.438096h2.438095s0 2.438095 2.438095 2.438095h7.314286-17.066667v14.628571h7.314286c-2.438095 0-2.438095 0-2.438095 2.438095 0 0 0 2.438095 2.438095 2.438096s2.438095 2.438095 2.438095 2.438095c0 2.438095 0 2.438095-2.438095 2.438095 0 0-2.438095 0-2.438095 2.438095 0 0 0 2.438095 2.438095 2.438096h39.009524c2.438095 0 2.438095 0 2.438095-2.438096 0 0 0-2.438095-2.438095-2.438095s-2.438095-2.438095-2.438095-2.438095c0-2.438095 0-2.438095 2.438095-2.438095 0 0 2.438095 0 2.438095-2.438096 0 0 0-2.438095-2.438095-2.438095h7.314286v-14.628571H316.952381h7.314286c2.438095 0 2.438095 0 2.438095-2.438095h2.438095v-2.438096h2.438095l2.438096-2.438095 2.438095-2.438095h0v-2.438095-2.438096l-2.438095-2.438095h-2.438096v-2.438095h-4.87619-2.438095-2.438096-2.438095-2.438095V421.790476h2.438095v-2.438095H316.952381v-2.438095h-2.438095v2.438095h-2.438096v2.438095h2.438096V429.104762h-4.876191-2.438095-2.438095H297.447619v2.438095s-2.438095 0-2.438095 2.438095l-2.438095 2.438096v4.87619h-2.438096c-14.628571-2.438095-14.628571-2.438095-12.190476 0z m4.876191 36.571429z m31.695238-34.133334z m0 7.314286c-2.438095 0-7.314286 0-9.752381-2.438095 4.87619 0 7.314286 0 9.752381 2.438095z m-12.190476-2.438095c-4.87619 0-12.190476 0-14.628572 2.438095 2.438095-2.438095 7.314286-2.438095 14.628572-2.438095zM329.142857 694.857143c0-2.438095 0-2.438095 0 0V682.666667c-2.438095 0-7.314286-2.438095-7.314286-4.876191v-2.438095c2.438095 0 2.438095 0 2.438096-2.438095 0 0 0-2.438095-2.438096-2.438096h-39.009523c-2.438095 0-2.438095 0-2.438096 2.438096 0 0 0 2.438095 2.438096 2.438095v2.438095c0 2.438095-2.438095 4.87619-7.314286 4.876191v12.190476c-2.438095 2.438095-4.87619 2.438095-9.752381 2.438095v4.876191c2.438095 0 7.314286 0 9.752381-2.438096h0c-2.438095 2.438095-4.87619 2.438095-9.752381 2.438096v9.752381c2.438095 0 7.314286 0 9.752381-2.438096-2.438095 2.438095-4.87619 2.438095-9.752381 2.438096v4.87619c2.438095 0 7.314286 0 9.752381-2.438095 2.438095 0 4.87619-2.438095 9.752381-2.438095 2.438095 0 7.314286 0 9.752381 2.438095 2.438095 2.438095 4.87619 2.438095 9.752381 2.438095 2.438095 0 7.314286 0 9.752381-2.438095 2.438095 0 4.87619-2.438095 9.752381-2.438095 2.438095 0 7.314286 0 9.752381 2.438095-2.438095 0-4.87619-2.438095-9.752381-2.438095-2.438095 0-7.314286 0-9.752381 2.438095-2.438095 0-4.87619 2.438095-9.752381 2.438095-2.438095 0-7.314286 0-9.752381-2.438095-2.438095 0-4.87619-2.438095-9.752381-2.438095-2.438095 0-7.314286 0-9.752381 2.438095-2.438095 2.438095-4.87619 2.438095-9.752381 2.438095v4.87619c2.438095 0 7.314286 0 9.752381-2.438095 2.438095 0 4.87619-2.438095 9.752381-2.438095 2.438095 0 7.314286 0 9.752381 2.438095 2.438095 2.438095 4.87619 2.438095 9.752381 2.438095 2.438095 0 7.314286 0 9.752381-2.438095 2.438095 0 4.87619-2.438095 9.752381-2.438095 2.438095 0 7.314286 0 9.752381 2.438095 2.438095 2.438095 4.87619 2.438095 9.752381 2.438095v-24.380952c-9.752381-2.438095-12.190476-2.438095-14.628572-2.438095z m-17.066667 0c-2.438095 0-4.87619 2.438095-9.75238 2.438095-2.438095 0-7.314286 0-9.752381-2.438095h19.504761z m-26.819047 2.438095h-2.438095 2.438095z m43.885714 2.438095c-2.438095 0-4.87619-2.438095-9.752381-2.438095-2.438095 0-7.314286 0-9.752381 2.438095-2.438095 2.438095-4.87619 2.438095-9.752381 2.438096-2.438095 0-7.314286 0-9.752381-2.438096 2.438095 2.438095 4.87619 2.438095 9.752381 2.438096 2.438095 0 7.314286 0 9.752381-2.438096 2.438095 0 4.87619-2.438095 9.752381-2.438095s7.314286 0 9.752381 2.438095zM621.714286 436.419048c0 2.438095 0 2.438095 0 0 0 2.438095 0 2.438095 0 0 0 2.438095-2.438095 2.438095 0 0-2.438095 2.438095 0 2.438095 0 2.438095l2.438095 2.438095 2.438095 2.438095h2.438095v2.438096h2.438096s0 2.438095 2.438095 2.438095h7.314286-17.066667v14.628571h7.314286c-2.438095 0-2.438095 0-2.438096 2.438095 0 0 0 2.438095 2.438096 2.438096s2.438095 2.438095 2.438095 2.438095c0 2.438095 0 2.438095-2.438095 2.438095 0 0-2.438095 0-2.438096 2.438095 0 0 0 2.438095 2.438096 2.438096h39.009523c2.438095 0 2.438095 0 2.438096-2.438096 0 0 0-2.438095-2.438096-2.438095s-2.438095-2.438095-2.438095-2.438095c0-2.438095 0-2.438095 2.438095-2.438095 0 0 2.438095 0 2.438096-2.438096 0 0 0-2.438095-2.438096-2.438095h7.314286v-14.628571h-17.066666 7.314285c2.438095 0 2.438095 0 2.438095-2.438095h2.438096v-2.438096h2.438095l2.438095-2.438095 2.438095-2.438095h0v-2.438095c0-2.438095-2.438095-7.314286-7.314285-7.314286h-2.438096l2.438096 2.438095h-2.438096c0-2.438095-2.438095-4.87619-4.87619-4.87619h-4.87619l4.87619 2.438095h-4.87619v-2.438095c0-2.438095 0-2.438095-2.438096-4.876191v-4.87619h2.438096V414.47619H658.285714v-2.438095h-2.438095v2.438095h-2.438095v2.438096h2.438095v4.87619s-2.438095 2.438095-2.438095 4.876191v2.438095h-4.876191l4.876191-2.438095h-4.876191c-2.438095 0-4.87619 2.438095-4.87619 4.87619h-2.438095l2.438095-2.438095h-2.438095c-14.628571 2.438095-19.504762 4.87619-19.504762 7.314286z m4.87619 41.447619z m34.133334-26.819048c-2.438095 0-7.314286 0-9.752381-2.438095 2.438095 0 7.314286 0 9.752381 2.438095z m-14.628572-7.314286h0z m0 4.876191c2.438095 0 2.438095 0 0 0 2.438095 0 2.438095 0 0 0-4.87619 0-12.190476 0-14.628571 2.438095 4.87619-2.438095 9.752381-2.438095 14.628571-2.438095zM675.352381 694.857143c-2.438095-2.438095-2.438095-2.438095 0 0V682.666667c-2.438095 0-7.314286-2.438095-7.314286-4.876191v-2.438095c2.438095 0 2.438095 0 2.438095-2.438095 0 0 0-2.438095-2.438095-2.438096h-39.009524c-2.438095 0-2.438095 0-2.438095 2.438096 0 0 0 2.438095 2.438095 2.438095v2.438095c0 2.438095-2.438095 4.87619-7.314285 4.876191v12.190476c-2.438095 2.438095-4.87619 2.438095-9.752381 2.438095v4.876191c2.438095 0 7.314286 0 9.752381-2.438096h0c-2.438095 2.438095-4.87619 2.438095-9.752381 2.438096v9.752381c2.438095 0 7.314286 0 9.752381-2.438096-2.438095 2.438095-4.87619 2.438095-9.752381 2.438096v4.87619c2.438095 0 7.314286 0 9.752381-2.438095 2.438095 0 4.87619-2.438095 9.752381-2.438095 2.438095 0 7.314286 0 9.752381 2.438095 2.438095 2.438095 4.87619 2.438095 9.752381 2.438095 2.438095 0 7.314286 0 9.752381-2.438095 2.438095 0 4.87619-2.438095 9.75238-2.438095 2.438095 0 7.314286 0 9.752381 2.438095-2.438095 0-4.87619-2.438095-9.752381-2.438095-2.438095 0-7.314286 0-9.75238 2.438095-2.438095 0-4.87619 2.438095-9.752381 2.438095-2.438095 0-7.314286 0-9.752381-2.438095-2.438095 0-4.87619-2.438095-9.752381-2.438095-2.438095 0-7.314286 0-9.752381 2.438095-2.438095 2.438095-4.87619 2.438095-9.752381 2.438095v4.87619c2.438095 0 7.314286 0 9.752381-2.438095 2.438095 0 4.87619-2.438095 9.752381-2.438095 2.438095 0 7.314286 0 9.752381 2.438095 2.438095 2.438095 4.87619 2.438095 9.752381 2.438095 2.438095 0 7.314286 0 9.752381-2.438095 2.438095 0 4.87619-2.438095 9.75238-2.438095 2.438095 0 7.314286 0 9.752381 2.438095 2.438095 2.438095 4.87619 2.438095 9.752381 2.438095v-24.380952c-9.752381-2.438095-12.190476-2.438095-14.628571-2.438095z m-19.504762 0c-2.438095 0-4.87619 2.438095-9.752381 2.438095-2.438095 0-7.314286 0-9.752381-2.438095h19.504762z m-29.257143 2.438095h0z m2.438095 12.190476h0z m46.32381-9.752381c-2.438095 0-4.87619-2.438095-9.752381-2.438095-2.438095 0-7.314286 0-9.752381 2.438095-2.438095 2.438095-4.87619 2.438095-9.752381 2.438096-2.438095 0-7.314286 0-9.752381-2.438096 2.438095 2.438095 4.87619 2.438095 9.752381 2.438096 2.438095 0 7.314286 0 9.752381-2.438096 2.438095 0 4.87619-2.438095 9.752381-2.438095 2.438095 0 7.314286 0 9.752381 2.438095z" fill="#BC091C" p-id="4983"></path><path d="M685.104762 568.07619s7.314286-19.504762 9.752381-19.504761c0-7.314286-9.752381-14.628571-26.819048-19.504762v-46.32381h-36.571428v41.447619c-14.628571 0-29.257143 2.438095-36.571429 4.876191v-75.580953h-85.333333c14.628571-2.438095 29.257143-4.87619 41.447619-7.314285 2.438095 0 2.438095-2.438095 2.438095-2.438096s0-2.438095-2.438095-2.438095-2.438095-2.438095 0-4.87619l4.87619-2.438096-2.438095-2.438095c2.438095-2.438095 2.438095-2.438095 4.876191-2.438095s2.438095 0 2.438095-2.438095 0-2.438095-2.438095-2.438096h-4.876191 2.438095c2.438095 0 7.314286 0 9.752381-2.438095l7.314286-7.314286h4.87619c2.438095-2.438095 2.438095-4.87619 0-4.87619 0 0 2.438095-4.87619 4.876191-7.314286 2.438095-2.438095 7.314286 0 7.314286 0 0-4.87619-2.438095-7.314286-7.314286-7.314285v-2.438096l2.438095-2.438095c2.438095-4.87619 4.87619-9.752381 4.876191-14.628571 0-9.752381-7.314286-17.066667-14.628572-24.380953l2.438095 2.438096c-7.314286-4.87619-19.504762-9.752381-31.695238-9.752381H536.380952h-2.438095-2.438095-2.438095l-7.314286-7.314286 4.87619 4.87619c-4.87619-7.314286-17.066667-14.628571-29.257142-14.628571-7.314286 0-14.628571 2.438095-21.942858 4.87619 0 0 0-2.438095-2.438095-2.438095h2.438095c2.438095 0 2.438095 0 2.438096-2.438095s0-2.438095-2.438096-2.438095-2.438095 0-2.438095 2.438095c0 0-2.438095-2.438095-4.87619-2.438095 2.438095 0 4.87619-2.438095 7.314285-4.876191v-4.87619c0-4.87619-2.438095-7.314286-7.314285-9.752381v-7.314286h4.87619V292.571429h-4.87619v-4.876191H463.238095v4.876191h-4.87619v4.87619h4.87619v7.314286c-4.87619 0-7.314286 4.87619-7.314285 9.752381v4.87619c2.438095 2.438095 4.87619 4.87619 7.314285 4.876191-2.438095 0-2.438095 2.438095-4.87619 2.438095 0-2.438095 0-2.438095-2.438095-2.438095s-2.438095 0-2.438096 2.438095 0 2.438095 2.438096 2.438095h2.438095s0 2.438095-2.438095 2.438095c-4.87619-2.438095-12.190476-4.87619-21.942858-4.87619-12.190476 0-24.380952 4.87619-29.257142 14.628571 2.438095-2.438095 2.438095-4.87619 4.87619-4.87619l-7.314286 7.314286h-2.438095-2.438095-12.190476c-12.190476 0-21.942857 2.438095-29.257143 7.314285-9.752381 4.87619-14.628571 14.628571-14.628572 24.380953 0 4.87619 2.438095 9.752381 4.876191 14.628571l2.438095 2.438095c-2.438095 0-4.87619 2.438095-4.87619 7.314286h7.314285c2.438095 2.438095 4.87619 7.314286 4.876191 7.314286 0 2.438095 0 2.438095 2.438095 4.87619s2.438095 2.438095 4.87619 0c2.438095 2.438095 4.87619 7.314286 7.314286 7.314286 2.438095 2.438095 7.314286 2.438095 9.752381 2.438095h0c-2.438095 0-2.438095 2.438095-2.438095 2.438095 0 2.438095 2.438095 2.438095 2.438095 2.438096s2.438095 0 4.876191 2.438095l-2.438096 2.438095 4.876191 2.438095v4.876191l-2.438095 2.438095c0 2.438095 0 2.438095 2.438095 2.438095 12.190476 2.438095 24.380952 4.87619 41.447619 7.314286h-85.333333v75.580952c-7.314286-2.438095-21.942857-4.87619-36.571429-4.87619v-41.447619h-36.571429v46.323809c-17.066667 4.87619-29.257143 12.190476-26.819047 19.504762l9.752381 19.504762c0 4.87619 7.314286 7.314286 19.504762 7.314286v-17.066667h-9.752381c2.438095-2.438095 4.87619-2.438095 9.752381-4.87619v43.885714c-14.628571 4.87619-24.380952 12.190476-24.380953 14.628572l2.438096 19.504761c0 2.438095 2.438095 2.438095 4.87619 4.876191 4.87619 2.438095 4.87619 7.314286 4.87619 9.752381 2.438095-2.438095 4.87619-7.314286 4.876191-9.752381 0-4.87619-2.438095-7.314286-4.876191-9.752381 2.438095-2.438095 7.314286-4.87619 12.190477-4.876191v51.2h36.571428v-68.266666c12.190476-7.314286 17.066667-12.190476 17.066667-14.628572 0 0-2.438095-17.066667-2.438095-19.504762-2.438095-2.438095-7.314286-2.438095-14.628572-4.87619v17.066667-34.133334c14.628571 0 29.257143 2.438095 36.571429 7.314286V665.6c0 4.87619 2.438095 12.190476 4.87619 17.066667 2.438095 2.438095 2.438095 4.87619 4.876191 9.752381 0 2.438095 2.438095 2.438095 2.438095 4.87619 4.87619 4.87619 12.190476 9.752381 17.066667 14.628572 24.380952 12.190476 56.07619 19.504762 85.333333 19.504761 29.257143 0 60.952381-7.314286 85.333333-19.504761 12.190476-7.314286 21.942857-17.066667 26.819048-31.695239 2.438095-4.87619 2.438095-12.190476 2.438095-17.066666v-107.276191c7.314286-2.438095 21.942857-4.87619 36.571429-4.87619v9.752381c-7.314286 0-12.190476 2.438095-14.628572 4.87619l-2.438095 19.504762c-2.438095 2.438095 4.87619 7.314286 17.066667 14.628572v68.266666h36.571428v-51.2c4.87619 2.438095 7.314286 2.438095 12.190477 4.876191-2.438095 2.438095-4.87619 7.314286-4.876191 9.752381 0 4.87619 2.438095 7.314286 4.876191 9.752381-2.438095-2.438095 0-7.314286 4.87619-9.752381 2.438095-2.438095 4.87619-2.438095 4.87619-4.876191l2.438096-19.504762c0-2.438095-9.752381-9.752381-24.380953-14.628571v-43.885714c2.438095 2.438095 7.314286 2.438095 9.752381 4.87619h-9.752381v17.066667c29.257143 2.438095 34.133333 0 36.571429-2.438096zM585.142857 380.342857s0-2.438095 2.438095-2.438095l-2.438095 2.438095z m2.438095-21.942857s0 2.438095 0 0c0 2.438095 0 0 0 0s0-2.438095 0 0c0-2.438095 0 0 0 0z m-2.438095-4.87619s-2.438095 0 0 0c-2.438095 0 0 0 0 0z m-2.438095-2.438096z m-43.885714-4.87619h12.190476c17.066667 0 31.695238 7.314286 34.133333 14.628571 0 2.438095 2.438095 4.87619 2.438095 7.314286 0 2.438095 0 7.314286-2.438095 9.752381-2.438095-2.438095-7.314286-4.87619-12.190476-7.314286-12.190476-4.87619-19.504762-4.87619-26.819048-4.87619h-4.87619v-2.438096-2.438095c2.438095 0 2.438095 0 2.438095-2.438095 0 0 0-2.438095-2.438095-2.438095v-2.438095s2.438095 0 2.438095-2.438096 0-2.438095-2.438095-2.438095-2.438095-2.438095-2.438095-2.438095z m-170.666667 2.438095l-2.438095 2.438095 2.438095-2.438095z m41.447619 0c-2.438095 0-2.438095 0-2.438095 2.438095 0 0 0 2.438095 2.438095 2.438096v2.438095s-2.438095 0-2.438095 2.438095 0 2.438095 2.438095 2.438095v4.876191h-7.314286c-7.314286 0-14.628571 2.438095-24.380952 4.87619-4.87619 2.438095-7.314286 4.87619-12.190476 7.314286-2.438095-2.438095-2.438095-4.87619-2.438096-9.752381 0-2.438095 0-4.87619 2.438096-7.314286 4.87619-9.752381 17.066667-14.628571 34.133333-14.628571h12.190476c-2.438095 0-2.438095 2.438095-2.438095 2.438095z m-78.019048 221.866667l-2.438095 2.438095c2.438095 0 2.438095-2.438095 2.438095-2.438095z m173.104762-238.933334c14.628571 0 26.819048 7.314286 29.257143 19.504762v2.438096c0 4.87619-2.438095 7.314286-4.87619 9.75238-7.314286 0-12.190476-2.438095-17.066667-4.87619-7.314286-2.438095-17.066667-4.87619-26.819048-4.87619v-7.314286-2.438095-4.876191c2.438095-4.87619 9.752381-7.314286 19.504762-7.314286z m-68.266666 26.819048c-4.87619 2.438095-9.752381 2.438095-17.066667 4.87619-2.438095-2.438095-4.87619-7.314286-4.876191-9.75238v-2.438096c0-9.752381 12.190476-19.504762 29.257143-19.504762 7.314286 0 14.628571 2.438095 19.504762 4.876191V351.085714c-9.752381 2.438095-19.504762 4.87619-26.819047 7.314286z m39.009523 73.142857h-19.504761H487.619048h-12.190477z m141.409524 138.971429l2.438095 2.438095-2.438095-2.438095z m12.190476 7.314285s-2.438095 0 0 0c-2.438095 0 0 0 0 0z" fill="#BC091C" p-id="4984"></path><path d="M353.52381 390.095238a2.438095 2.438095 0 1 0 4.87619 0 2.438095 2.438095 0 1 0-4.87619 0Z" fill="#BC091C" p-id="4985"></path><path d="M351.085714 385.219048a2.438095 2.438095 0 1 0 4.876191 0 2.438095 2.438095 0 1 0-4.876191 0Z" fill="#BC091C" p-id="4986"></path><path d="M348.647619 377.904762a2.438095 2.438095 0 1 0 4.876191 0 2.438095 2.438095 0 1 0-4.876191 0Z" fill="#BC091C" p-id="4987"></path><path d="M348.647619 370.590476a2.438095 2.438095 0 1 0 4.876191 0 2.438095 2.438095 0 1 0-4.876191 0Z" fill="#BC091C" p-id="4988"></path><path d="M348.647619 360.838095a2.438095 2.438095 0 1 0 4.876191 0 2.438095 2.438095 0 1 0-4.876191 0Z" fill="#BC091C" p-id="4989"></path><path d="M353.52381 355.961905a2.438095 2.438095 0 1 0 4.87619 0 2.438095 2.438095 0 1 0-4.87619 0Z" fill="#BC091C" p-id="4990"></path><path d="M358.4 348.647619a2.438095 2.438095 0 1 0 4.87619 0 2.438095 2.438095 0 1 0-4.87619 0Z" fill="#BC091C" p-id="4991"></path><path d="M365.714286 343.771429a2.438095 2.438095 0 1 0 4.87619 0 2.438095 2.438095 0 1 0-4.87619 0Z" fill="#BC091C" p-id="4992"></path><path d="M370.590476 341.333333a2.438095 2.438095 0 1 0 4.876191 0 2.438095 2.438095 0 1 0-4.876191 0Z" fill="#BC091C" p-id="4993"></path><path d="M380.342857 338.895238a2.438095 2.438095 0 1 0 4.876191 0 2.438095 2.438095 0 1 0-4.876191 0Z" fill="#BC091C" p-id="4994"></path><path d="M387.657143 336.457143a2.438095 2.438095 0 1 0 4.87619 0 2.438095 2.438095 0 1 0-4.87619 0Z" fill="#BC091C" p-id="4995"></path><path d="M394.971429 336.457143a2.438095 2.438095 0 1 0 4.87619 0 2.438095 2.438095 0 1 0-4.87619 0Z" fill="#BC091C" p-id="4996"></path><path d="M402.285714 336.457143a2.438095 2.438095 0 1 0 4.876191 0 2.438095 2.438095 0 1 0-4.876191 0Z" fill="#BC091C" p-id="4997"></path><path d="M412.038095 336.457143a2.438095 2.438095 0 1 0 4.876191 0 2.438095 2.438095 0 1 0-4.876191 0Z" fill="#BC091C" p-id="4998"></path><path d="M416.914286 331.580952a2.438095 2.438095 0 1 0 4.87619 0 2.438095 2.438095 0 1 0-4.87619 0Z" fill="#BC091C" p-id="4999"></path><path d="M424.228571 329.142857a2.438095 2.438095 0 1 0 4.876191 0 2.438095 2.438095 0 1 0-4.876191 0Z" fill="#BC091C" p-id="5000"></path><path d="M431.542857 326.704762a2.438095 2.438095 0 1 0 4.876191 0 2.438095 2.438095 0 1 0-4.876191 0Z" fill="#BC091C" p-id="5001"></path><path d="M438.857143 324.266667a2.438095 2.438095 0 1 0 4.87619 0 2.438095 2.438095 0 1 0-4.87619 0Z" fill="#BC091C" p-id="5002"></path><path d="M446.171429 324.266667a2.438095 2.438095 0 1 0 4.87619 0 2.438095 2.438095 0 1 0-4.87619 0Z" fill="#BC091C" p-id="5003"></path><path d="M455.92381 326.704762a2.438095 2.438095 0 1 0 4.87619 0 2.438095 2.438095 0 1 0-4.87619 0Z" fill="#BC091C" p-id="5004"></path><path d="M487.619048 326.704762a2.438095 2.438095 0 1 0 4.87619 0 2.438095 2.438095 0 1 0-4.87619 0Z" fill="#BC091C" p-id="5005"></path><path d="M494.933333 324.266667a2.438095 2.438095 0 1 0 4.876191 0 2.438095 2.438095 0 1 0-4.876191 0Z" fill="#BC091C" p-id="5006"></path><path d="M504.685714 324.266667a2.438095 2.438095 0 1 0 4.876191 0 2.438095 2.438095 0 1 0-4.876191 0Z" fill="#BC091C" p-id="5007"></path><path d="M512 326.704762a2.438095 2.438095 0 1 0 4.87619 0 2.438095 2.438095 0 1 0-4.87619 0Z" fill="#BC091C" p-id="5008"></path><path d="M519.314286 329.142857a2.438095 2.438095 0 1 0 4.87619 0 2.438095 2.438095 0 1 0-4.87619 0Z" fill="#BC091C" p-id="5009"></path><path d="M526.628571 331.580952a2.438095 2.438095 0 1 0 4.876191 0 2.438095 2.438095 0 1 0-4.876191 0Z" fill="#BC091C" p-id="5010"></path><path d="M531.504762 336.457143a2.438095 2.438095 0 1 0 4.87619 0 2.438095 2.438095 0 1 0-4.87619 0Z" fill="#BC091C" p-id="5011"></path><path d="M541.257143 336.457143a2.438095 2.438095 0 1 0 4.87619 0 2.438095 2.438095 0 1 0-4.87619 0Z" fill="#BC091C" p-id="5012"></path><path d="M548.571429 336.457143a2.438095 2.438095 0 1 0 4.87619 0 2.438095 2.438095 0 1 0-4.87619 0Z" fill="#BC091C" p-id="5013"></path><path d="M555.885714 336.457143a2.438095 2.438095 0 1 0 4.876191 0 2.438095 2.438095 0 1 0-4.876191 0Z" fill="#BC091C" p-id="5014"></path><path d="M563.2 338.895238a2.438095 2.438095 0 1 0 4.87619 0 2.438095 2.438095 0 1 0-4.87619 0Z" fill="#BC091C" p-id="5015"></path><path d="M570.514286 341.333333a2.438095 2.438095 0 1 0 4.87619 0 2.438095 2.438095 0 1 0-4.87619 0Z" fill="#BC091C" p-id="5016"></path><path d="M577.828571 343.771429a2.438095 2.438095 0 1 0 4.876191 0 2.438095 2.438095 0 1 0-4.876191 0Z" fill="#BC091C" p-id="5017"></path><path d="M585.142857 348.647619a2.438095 2.438095 0 1 0 4.876191 0 2.438095 2.438095 0 1 0-4.876191 0Z" fill="#BC091C" p-id="5018"></path><path d="M590.019048 355.961905a2.438095 2.438095 0 1 0 4.87619 0 2.438095 2.438095 0 1 0-4.87619 0Z" fill="#BC091C" p-id="5019"></path><path d="M594.895238 360.838095a2.438095 2.438095 0 1 0 4.876191 0 2.438095 2.438095 0 1 0-4.876191 0Z" fill="#BC091C" p-id="5020"></path><path d="M594.895238 370.590476a2.438095 2.438095 0 1 0 4.876191 0 2.438095 2.438095 0 1 0-4.876191 0Z" fill="#BC091C" p-id="5021"></path><path d="M594.895238 377.904762a2.438095 2.438095 0 1 0 4.876191 0 2.438095 2.438095 0 1 0-4.876191 0Z" fill="#BC091C" p-id="5022"></path><path d="M592.457143 385.219048a2.438095 2.438095 0 1 0 4.87619 0 2.438095 2.438095 0 1 0-4.87619 0Z" fill="#BC091C" p-id="5023"></path><path d="M590.019048 390.095238a2.438095 2.438095 0 1 0 4.87619 0 2.438095 2.438095 0 1 0-4.87619 0Z" fill="#BC091C" p-id="5024"></path></svg>