<?xml version="1.0" standalone="no"?><!DOCTYPE svg PUBLIC "-//W3C//DTD SVG 1.1//EN" "http://www.w3.org/Graphics/SVG/1.1/DTD/svg11.dtd"><svg t="1532045463626" class="icon" style="" viewBox="0 0 1024 1024" version="1.1" xmlns="http://www.w3.org/2000/svg" p-id="5879" xmlns:xlink="http://www.w3.org/1999/xlink" width="200" height="200"><defs><style type="text/css"></style></defs><path d="M810.666667 128a85.333333 85.333333 0 0 1 85.333333 85.333333v597.333334a85.333333 85.333333 0 0 1-85.333333 85.333333H213.333333a85.333333 85.333333 0 0 1-85.333333-85.333333V213.333333a85.333333 85.333333 0 0 1 85.333333-85.333333h597.333334m-298.666667 85.333333a298.666667 298.666667 0 0 0-298.666667 298.666667 298.666667 298.666667 0 0 0 298.666667 298.666667 298.666667 298.666667 0 0 0 298.666667-298.666667 298.666667 298.666667 0 0 0-298.666667-298.666667m-213.333333 298.666667l128-128v85.333333h170.666666V384l128 128-128 128v-85.333333h-170.666666v85.333333l-128-128z" fill="#2b76ad" p-id="5880"></path></svg>