<?xml version="1.0" standalone="no"?><!DOCTYPE svg PUBLIC "-//W3C//DTD SVG 1.1//EN" "http://www.w3.org/Graphics/SVG/1.1/DTD/svg11.dtd"><svg t="1531430387878" class="icon" style="" viewBox="0 0 1560 1024" version="1.1" xmlns="http://www.w3.org/2000/svg" p-id="4255" xmlns:xlink="http://www.w3.org/1999/xlink" width="304.6875" height="200"><defs><style type="text/css"></style></defs><path d="M0 234.057143h1560.380952v78.019047H0zM0 885.028571c0 17.066667 2.438095 36.571429 9.752381 51.2h1540.87619c7.314286-17.066667 9.752381-34.133333 9.752381-51.2v-26.819047H0v26.819047zM0 546.133333h1560.380952v78.019048H0zM0 702.171429h1560.380952V780.190476H0zM0 390.095238h1560.380952v78.019048H0zM0 138.971429v17.066666h1560.380952v-17.066666c0-21.942857-4.87619-41.447619-14.628571-60.952381H14.628571C4.87619 97.52381 0 117.028571 0 138.971429z" fill="#FFFFFF" p-id="4256"></path><path d="M1418.971429 0H141.409524C85.333333 0 36.571429 31.695238 14.628571 78.019048h1531.12381C1523.809524 31.695238 1475.047619 0 1418.971429 0zM0 156.038095h1560.380952v78.019048H0zM0 312.07619h1560.380952V390.095238H0zM0 468.114286h1560.380952v78.019047H0zM0 624.152381h1560.380952v78.019048H0zM0 780.190476h1560.380952v78.019048H0zM141.409524 1024h1277.561905c58.514286 0 109.714286-36.571429 131.657142-87.771429H9.752381c21.942857 51.2 70.704762 87.771429 131.657143 87.771429z" fill="#BD0A30" p-id="4257"></path><path d="M768 0H141.409524C99.961905 0 63.390476 17.066667 39.009524 43.885714h17.066666l7.314286-19.504762 7.314286 19.504762h21.942857l-17.066667 14.628572 7.314286 21.942857-19.504762-14.628572-17.066666 14.628572 7.314285-21.942857-17.066666-12.190476C14.628571 70.704762 0 102.4 0 138.971429v407.161904h768V0z" fill="#3C3B6E" p-id="4258"></path><path d="M53.638095 58.514286l-7.314285 21.942857 17.066666-14.628572 19.504762 14.628572-7.314286-21.942857 17.066667-14.628572h-21.942857L63.390476 24.380952l-7.314286 19.504762h-17.066666l-2.438095 2.438096 17.066666 12.190476zM75.580952 168.228571l17.066667-14.628571h-21.942857l-7.314286-21.942857-7.314286 21.942857h-21.942857l19.504762 14.628571-7.314285 21.942858 17.066666-14.628572 19.504762 14.628572zM75.580952 277.942857l17.066667-14.628571h-21.942857l-7.314286-21.942857-7.314286 21.942857h-21.942857l19.504762 14.628571-7.314285 19.504762 17.066666-12.190476 19.504762 12.190476zM75.580952 385.219048l17.066667-12.190477h-21.942857l-7.314286-21.942857-7.314286 21.942857h-21.942857l19.504762 12.190477-7.314285 21.942857 17.066666-12.190476 19.504762 12.190476zM75.580952 494.933333l17.066667-12.190476h-21.942857l-7.314286-21.942857-7.314286 21.942857h-21.942857l19.504762 12.190476-7.314285 21.942857 17.066666-12.190476 19.504762 12.190476zM138.971429 112.152381l19.504761-12.190476h-24.380952l-7.314286-21.942857-4.87619 21.942857H97.52381l19.504761 12.190476-7.314285 21.942857 17.066666-12.190476 19.504762 12.190476zM138.971429 221.866667l19.504761-12.190477h-24.380952l-7.314286-21.942857-4.87619 21.942857H97.52381l19.504761 12.190477-7.314285 21.942857 17.066666-14.628572 19.504762 14.628572zM138.971429 331.580952l19.504761-14.628571h-24.380952l-7.314286-19.504762-4.87619 19.504762H97.52381l19.504761 14.628571-7.314285 21.942858 17.066666-14.628572 19.504762 14.628572zM138.971429 441.295238l19.504761-14.628571h-24.380952l-7.314286-21.942857-4.87619 21.942857H97.52381l19.504761 14.628571-7.314285 21.942857 17.066666-14.628571 19.504762 14.628571zM173.104762 80.457143l19.504762-14.628572 17.066666 14.628572-7.314285-21.942857 19.504762-14.628572h-24.380953L192.609524 24.380952l-7.314286 19.504762h-21.942857l17.066667 14.628572zM192.609524 131.657143l-7.314286 21.942857h-21.942857l17.066667 14.628571-7.314286 21.942858 19.504762-14.628572 17.066666 14.628572-7.314285-21.942858 19.504762-14.628571h-24.380953zM192.609524 241.371429l-7.314286 21.942857h-21.942857l17.066667 14.628571-7.314286 19.504762 19.504762-12.190476 17.066666 12.190476-7.314285-19.504762 19.504762-14.628571h-24.380953zM197.485714 373.028571l-4.87619-21.942857-7.314286 21.942857h-21.942857l17.066667 12.190477-7.314286 21.942857 19.504762-12.190476 17.066666 12.190476-7.314285-21.942857 19.504762-12.190477zM202.361905 494.933333l19.504762-12.190476h-24.380953l-4.87619-21.942857-7.314286 21.942857h-21.942857l17.066667 12.190476-7.314286 21.942857 19.504762-12.190476 17.066666 12.190476zM243.809524 112.152381l-7.314286 21.942857 19.504762-12.190476 17.066667 12.190476-7.314286-21.942857 19.504762-12.190476h-21.942857l-7.314286-21.942857-7.314286 21.942857h-21.942857zM256 187.733333l-7.314286 21.942857h-21.942857l17.066667 12.190477-7.314286 21.942857 19.504762-14.628572 17.066667 14.628572-7.314286-21.942857 19.504762-12.190477h-21.942857zM256 297.447619l-7.314286 19.504762h-21.942857l17.066667 14.628571-7.314286 21.942858 19.504762-14.628572 17.066667 14.628572-7.314286-21.942858 19.504762-14.628571h-21.942857zM263.314286 426.666667l-7.314286-21.942857-7.314286 21.942857h-21.942857l17.066667 14.628571-7.314286 21.942857 19.504762-14.628571 17.066667 14.628571-7.314286-21.942857 19.504762-14.628571zM319.390476 24.380952l-7.314286 19.504762h-21.942857l17.066667 14.628572-4.87619 21.942857 17.066666-14.628572 19.504762 14.628572-7.314286-21.942857 17.066667-14.628572h-21.942857zM319.390476 131.657143l-7.314286 21.942857h-21.942857l17.066667 14.628571-4.87619 21.942858 17.066666-14.628572 19.504762 14.628572-7.314286-21.942858 17.066667-14.628571h-21.942857zM319.390476 241.371429l-7.314286 21.942857h-21.942857l17.066667 14.628571-4.87619 19.504762 17.066666-12.190476 19.504762 12.190476-7.314286-19.504762 17.066667-14.628571h-21.942857zM319.390476 351.085714l-7.314286 21.942857h-21.942857l17.066667 12.190477-4.87619 21.942857 17.066666-12.190476 19.504762 12.190476-7.314286-21.942857 17.066667-12.190477h-21.942857zM326.704762 482.742857l-7.314286-21.942857-7.314286 21.942857h-21.942857l17.066667 12.190476-4.87619 21.942857 17.066666-12.190476 19.504762 12.190476-7.314286-21.942857 17.066667-12.190476zM382.780952 78.019048l-7.314285 21.942857h-21.942857l19.504761 12.190476-7.314285 21.942857 17.066666-12.190476 19.504762 12.190476-7.314285-21.942857 17.066666-12.190476H390.095238zM382.780952 187.733333l-7.314285 21.942857h-21.942857l19.504761 12.190477-7.314285 21.942857 17.066666-14.628572 19.504762 14.628572-7.314285-21.942857 17.066666-12.190477H390.095238zM382.780952 297.447619l-7.314285 19.504762h-21.942857l19.504761 14.628571-7.314285 21.942858 17.066666-14.628572 19.504762 14.628572-7.314285-21.942858 17.066666-14.628571H390.095238zM390.095238 426.666667l-7.314286-21.942857-7.314285 21.942857h-21.942857l19.504761 14.628571-7.314285 21.942857 17.066666-14.628571 19.504762 14.628571-7.314285-21.942857 17.066666-14.628571zM446.171429 24.380952l-4.876191 19.504762h-24.380952l19.504762 14.628572-7.314286 21.942857 17.066667-14.628572 19.504761 14.628572-7.314285-21.942857 19.504762-14.628572h-24.380953zM446.171429 131.657143l-4.876191 21.942857h-24.380952l19.504762 14.628571-7.314286 21.942858 17.066667-14.628572 19.504761 14.628572-7.314285-21.942858 19.504762-14.628571h-24.380953zM446.171429 241.371429l-4.876191 21.942857h-24.380952l19.504762 14.628571-7.314286 19.504762 17.066667-12.190476 19.504761 12.190476-7.314285-19.504762 19.504762-14.628571h-24.380953zM446.171429 351.085714l-4.876191 21.942857h-24.380952l19.504762 12.190477-7.314286 21.942857 17.066667-12.190476 19.504761 12.190476-7.314285-21.942857 19.504762-12.190477h-24.380953zM453.485714 482.742857l-7.314285-21.942857-4.876191 21.942857h-24.380952l19.504762 12.190476-7.314286 21.942857 17.066667-12.190476 19.504761 12.190476-7.314285-21.942857 19.504762-12.190476zM512 78.019048l-7.314286 21.942857h-21.942857l17.066667 12.190476-7.314286 21.942857 19.504762-12.190476 17.066667 12.190476-7.314286-21.942857 19.504762-12.190476h-21.942857zM575.390476 131.657143l-7.314286 21.942857h-21.942857l17.066667 14.628571-7.314286 21.942858 19.504762-14.628572 17.066667 14.628572-4.876191-21.942858 17.066667-14.628571h-21.942857zM512 187.733333l-7.314286 21.942857h-21.942857l17.066667 12.190477-7.314286 21.942857 19.504762-14.628572 17.066667 14.628572-7.314286-21.942857 19.504762-12.190477h-21.942857zM512 297.447619l-7.314286 19.504762h-21.942857l17.066667 14.628571-7.314286 21.942858 19.504762-14.628572 17.066667 14.628572-7.314286-21.942858 19.504762-14.628571h-21.942857zM519.314286 426.666667l-7.314286-21.942857-7.314286 21.942857h-21.942857l17.066667 14.628571-7.314286 21.942857 19.504762-14.628571 17.066667 14.628571-7.314286-21.942857 19.504762-14.628571zM575.390476 24.380952l-7.314286 19.504762h-21.942857l17.066667 14.628572-7.314286 21.942857 19.504762-14.628572 17.066667 14.628572-4.876191-21.942857 17.066667-14.628572h-21.942857zM575.390476 241.371429l-7.314286 21.942857h-21.942857l17.066667 14.628571-7.314286 19.504762 19.504762-12.190476 17.066667 12.190476-4.876191-19.504762 17.066667-14.628571h-21.942857zM575.390476 351.085714l-7.314286 21.942857h-21.942857l17.066667 12.190477-7.314286 21.942857 19.504762-12.190476 17.066667 12.190476-4.876191-21.942857 17.066667-12.190477h-21.942857zM582.704762 482.742857l-7.314286-21.942857-7.314286 21.942857h-21.942857l17.066667 12.190476-7.314286 21.942857 19.504762-12.190476 17.066667 12.190476-4.876191-21.942857 17.066667-12.190476zM638.780952 78.019048l-7.314285 21.942857H609.52381l17.066666 12.190476-4.87619 21.942857 17.066666-12.190476 19.504762 12.190476-7.314285-21.942857 17.066666-12.190476h-21.942857zM638.780952 187.733333l-7.314285 21.942857H609.52381l17.066666 12.190477-4.87619 21.942857 17.066666-14.628572 19.504762 14.628572-7.314285-21.942857 17.066666-12.190477h-21.942857zM638.780952 297.447619l-7.314285 19.504762H609.52381l17.066666 14.628571-4.87619 21.942858 17.066666-14.628572 19.504762 14.628572-7.314285-21.942858 17.066666-14.628571h-21.942857zM646.095238 426.666667l-7.314286-21.942857-7.314285 21.942857H609.52381l17.066666 14.628571-4.87619 21.942857 17.066666-14.628571 19.504762 14.628571-7.314285-21.942857 17.066666-14.628571zM692.419048 58.514286l-7.314286 21.942857 17.066667-14.628572 19.504761 14.628572-7.314285-21.942857 17.066666-14.628572h-21.942857l-7.314285-19.504762-7.314286 19.504762h-21.942857zM702.171429 131.657143l-7.314286 21.942857h-21.942857l19.504762 14.628571-7.314286 21.942858 17.066667-14.628572 19.504761 14.628572-7.314285-21.942858 17.066666-14.628571h-21.942857zM702.171429 241.371429l-7.314286 21.942857h-21.942857l19.504762 14.628571-7.314286 19.504762 17.066667-12.190476 19.504761 12.190476-7.314285-19.504762 17.066666-14.628571h-21.942857zM702.171429 351.085714l-7.314286 21.942857h-21.942857l19.504762 12.190477-7.314286 21.942857 17.066667-12.190476 19.504761 12.190476-7.314285-21.942857 17.066666-12.190477h-21.942857zM709.485714 482.742857l-7.314285-21.942857-7.314286 21.942857h-21.942857l19.504762 12.190476-7.314286 21.942857 17.066667-12.190476 19.504761 12.190476-7.314285-21.942857 17.066666-12.190476z" fill="#FFFFFF" p-id="4259"></path></svg>