<?xml version="1.0" standalone="no"?><!DOCTYPE svg PUBLIC "-//W3C//DTD SVG 1.1//EN" "http://www.w3.org/Graphics/SVG/1.1/DTD/svg11.dtd"><svg t="1528696987515" class="icon" style="" viewBox="0 0 1024 1024" version="1.1" xmlns="http://www.w3.org/2000/svg" p-id="8962" xmlns:xlink="http://www.w3.org/1999/xlink" width="200" height="200"><defs><style type="text/css"></style></defs><path d="M402.285714 877.714286l54.857143-256-54.857143-73.142857-73.142857-36.571429z m146.285715 0l73.142857-365.714286-73.142857 36.571429-54.857143 73.142857zM640 300.571429q-1.142857-2.285714-2.285714-3.428572-5.714286-4.571429-54.857143-4.571428-40 0-95.428572 10.857142-4 1.142857-12 1.142858t-12-1.142858q-55.428571-10.857143-95.428571-10.857142-49.142857 0-54.857143 4.571428-1.142857 1.142857-2.285714 3.428572 1.142857 10.285714 2.285714 15.428571 1.142857 1.714286 4.285714 3.714286T321.714286 325.714286q1.142857 2.285714 4.285714 11.714285t4 11.714286 4.285714 9.714286 4.857143 9.714286 5.142857 8 6.857143 7.714285 8 5.428572 10 4.571428 11.714286 2.285715 14 1.142857q20.571429 0 33.714286-7.142857t18.571428-17.142858T455.428571 353.714286t6.571429-16.857143T472 329.714286h6.857143q6.285714 0 10 7.142857T495.428571 353.714286t8.285715 19.714285 18.571428 17.142858 33.714286 7.142857q7.428571 0 14-1.142857t11.714286-2.285715 10-4.571428 8-5.428572 6.857143-7.714285 5.142857-8 4.857143-9.714286 4.285714-9.714286 4-11.714286T629.142857 325.714286q1.142857-4 4.285714-6t4.285715-3.714286q1.142857-5.142857 2.285714-15.428571z m237.714286 502.285714q0 69.142857-41.714286 108.571428t-110.857143 39.428572H225.714286q-69.142857 0-110.857143-39.428572T73.142857 802.857143q0-34.857143 2.571429-67.428572t10.857143-71.714285T108 593.142857t36.285714-59.142857T197.714286 491.428571l-51.428572-125.714285h122.285715q-12.571429-36.571429-12.571429-73.142857 0-6.857143 1.142857-18.285715-110.857143-22.857143-110.857143-54.857143 0-32.571429 120-56.571428 9.714286-35.428571 29.428572-76.571429T336 21.142857q18.285714-21.142857 43.428571-21.142857 17.142857 0 48 17.714286t48 17.714285 48-17.714285 48-17.714286q25.142857 0 43.428572 21.142857 20.571429 24 40.285714 65.142857t29.428572 76.571429q120 24 120 56.571428 0 32-110.857143 54.857143 4 46.285714-11.428572 91.428572h122.285715l-46.857143 128.571428q36 18.857143 61.428571 55.142857T856.571429 631.428571t16.571428 86.571429 4.571429 84.857143z" p-id="8963"></path></svg>