<?xml version="1.0" standalone="no"?><!DOCTYPE svg PUBLIC "-//W3C//DTD SVG 1.1//EN" "http://www.w3.org/Graphics/SVG/1.1/DTD/svg11.dtd"><svg t="1528697770551" class="icon" style="" viewBox="0 0 1024 1024" version="1.1" xmlns="http://www.w3.org/2000/svg" p-id="7741" xmlns:xlink="http://www.w3.org/1999/xlink" width="200" height="200"><defs><style type="text/css"></style></defs><path d="M725.333333 778.112L629.888 682.666667h-278.186667L256 778.368V853.333333h469.333333v-75.221333z m42.666667-17.194667V896H213.333333v-135.253333h0.085334L213.333333 760.661333 333.994667 640l0.085333 0.085333V640h313.173333v0.298667l0.298667-0.298667 120.704 120.661333-0.256 0.256zM682.666667 405.333333a192 192 0 1 1-384 0 192 192 0 0 1 384 0z m-42.666667 0a149.333333 149.333333 0 1 0-298.666667 0 149.333333 149.333333 0 0 0 298.666667 0z" fill="#444444" p-id="7742"></path></svg>