<?xml version="1.0" standalone="no"?><!DOCTYPE svg PUBLIC "-//W3C//DTD SVG 1.1//EN" "http://www.w3.org/Graphics/SVG/1.1/DTD/svg11.dtd"><svg t="1528700361150" class="icon" style="" viewBox="0 0 1024 1024" version="1.1" xmlns="http://www.w3.org/2000/svg" p-id="8083" xmlns:xlink="http://www.w3.org/1999/xlink" width="200" height="200"><defs><style type="text/css"></style></defs><path d="M597.333333 618.666667V725.333333H384v-128h213.333333v21.333334z m-42.666666 21.333333h-128v42.666667h128v-42.666667z m-64 256a362.666667 362.666667 0 1 1 0-725.333333 362.666667 362.666667 0 0 1 0 725.333333z m0-42.666667a320 320 0 1 0 0-640 320 320 0 0 0 0 640z m106.666666-405.333333a106.666667 106.666667 0 1 1-213.333333 0 106.666667 106.666667 0 0 1 213.333333 0z m-42.666666 0a64 64 0 1 0-128 0 64 64 0 0 0 128 0z" fill="#444444" p-id="8084"></path></svg>