<?xml version="1.0" standalone="no"?><!DOCTYPE svg PUBLIC "-//W3C//DTD SVG 1.1//EN" "http://www.w3.org/Graphics/SVG/1.1/DTD/svg11.dtd"><svg t="1528757243248" class="icon" style="" viewBox="0 0 1024 1024" version="1.1" xmlns="http://www.w3.org/2000/svg" p-id="7628" xmlns:xlink="http://www.w3.org/1999/xlink" width="200" height="200"><defs><style type="text/css"></style></defs><path d="M170.666667 426.666667h170.666666v170.666666H170.666667v-170.666666z m42.666666 42.666666v85.333334h85.333334v-85.333334H213.333333zM170.666667 213.333333h170.666666v170.666667H170.666667V213.333333z m42.666666 42.666667v85.333333h85.333334V256H213.333333z m170.666667-42.666667h170.666667v170.666667H384V213.333333z m42.666667 42.666667v85.333333h85.333333V256h-85.333333z m-42.666667 170.666667h170.666667v170.666666H384v-170.666666z m42.666667 42.666666v85.333334h85.333333v-85.333334h-85.333333z m170.666666-256h170.666667v170.666667h-170.666667V213.333333z m42.666667 42.666667v85.333333h85.333333V256h-85.333333z m-42.666667 170.666667h170.666667v170.666666h-170.666667v-170.666666z m42.666667 42.666666v85.333334h85.333333v-85.333334h-85.333333z m-42.666667 170.666667h170.666667v170.666667h-170.666667v-170.666667z m42.666667 42.666667v85.333333h85.333333v-85.333333h-85.333333z m-256-42.666667h170.666667v170.666667H384v-170.666667z m42.666667 42.666667v85.333333h85.333333v-85.333333h-85.333333z m-256-42.666667h170.666666v170.666667H170.666667v-170.666667z m42.666666 42.666667v85.333333h85.333334v-85.333333H213.333333z" fill="" p-id="7629"></path></svg>