<?xml version="1.0" standalone="no"?><!DOCTYPE svg PUBLIC "-//W3C//DTD SVG 1.1//EN" "http://www.w3.org/Graphics/SVG/1.1/DTD/svg11.dtd"><svg t="1532046395359" class="icon" style="" viewBox="0 0 1024 1024" version="1.1" xmlns="http://www.w3.org/2000/svg" p-id="13868" xmlns:xlink="http://www.w3.org/1999/xlink" width="200" height="200"><defs><style type="text/css"></style></defs><path d="M510.971446 510.980071m-510.971446 0a510.971446 510.971446 0 1 0 1021.942892 0 510.971446 510.971446 0 1 0-1021.942892 0Z" fill="#702C90" p-id="13869"></path><path d="M874.342144 151.676151c199.548121 199.548121 199.548121 523.091996-0.015094 722.655211-199.548121 199.548121-523.107091 199.548121-722.655212 0L874.342144 151.676151z" fill="#5F2C80" p-id="13870"></path><path d="M1010.777581 617.555095L791.074544 385.748758l-33.217769 31.481949-27.294419-28.788733-69.734675 66.071124-60.747224-64.08733-29.480905 27.956402-82.847122-82.853591-37.993969 37.985344-36.307744-36.299119-34.798336 34.791867 36.307744 36.307744-27.738616 27.732148-93.441013-93.456108-19.510184 19.501558-23.527366-23.535991-34.798336 34.798335L490.665589 648.075336l-49.249845 49.249844-18.548474-18.548475-15.47575 15.4585-15.4585-15.4585-24.036253 24.036253 295.917387 295.926012c174.420781-54.606088 308.557605-200.216573 346.963427-381.183875z" fill="#4F286E" p-id="13871"></path><path d="M708.035512 426.793888c-14.984114 4.034433-151.960782 110.262293-160.989202 136.32331-2.001044 8.996075 0.185442 96.313202 2.177861 109.399774 9.028419 2.00967 74.20468 0.250131 86.154883 2.259801l-1.436095 26.988224c-11.706541-0.903489-94.521319-0.694328-141.761493-0.694328-24.003908 0-101.20153 2.654403-124.899244 1.960075l4.493725-25.698758c13.013258-0.953084 66.830141 2.395647 78.633716-10.166945 5.86513-6.253264 4.034433-89.227607 2.033389-103.258638-4.978892-15.007833-125.028621-165.426863-156.407069-190.075504H215.168343v-37.808527H487.840838v2.598339c0.250131 0 0.694328 0.047439 0.927208 0.097033l-0.927208 6.391267v28.724044h-82.208857c36.654908 53.599097 89.195263 118.298816 111.601354 149.394788l109.818096-99.532555h-65.273294l-9.205236-37.776183h239.155001l-1.766008 2.695373c0.185442 0 0.580044 0.04097 0.8388 0.040969l-17.080036 24.778019a2.177861 2.177861 0 0 0-0.532605 0.079783l-6.897997 10.182039h-44.10923c-5.729284 1.265747-10.75777 2.389178-14.145314 3.0986z m78.021327 236.824043l-21.114469-1.056586-23.544617-2.863564 0.185441 40.389616 18.580819 1.606442 20.025539 1.468439 5.867287-39.544347z m40.98691-193.021007c-7.124408-0.250131-71.906066-6.391267-80.31994-8.045148l0.991897 170.591197 36.654908 2.960597 42.673135-165.506646z" fill="#FFFFFF" p-id="13872"></path></svg>